<?xml version="1.0" encoding="UTF-8"?>
<svg version="1.1" xmlns="http://www.w3.org/2000/svg" width="200" height="200">
<path d="M0 0 C1.29658035 -0.00410889 1.29658035 -0.00410889 2.61935425 -0.00830078 C17.67793408 0.01678263 30.66726401 2.10515722 44.375 8.6875 C45.44524414 9.19192627 45.44524414 9.19192627 46.53710938 9.70654297 C55.02558793 13.83323043 62.38511294 19.37904949 69.375 25.6875 C70.73044922 26.88439453 70.73044922 26.88439453 72.11328125 28.10546875 C83.95051145 39.17252556 92.58155247 53.21371368 97.375 68.6875 C97.7162793 69.74638428 98.05755859 70.80526855 98.40917969 71.89624023 C101.07768515 80.85487872 101.95199255 89.04044313 101.78662109 98.36889648 C101.74971489 100.51659174 101.74560651 102.66256443 101.74609375 104.81054688 C101.61448585 131.07963385 90.48241091 154.08668463 72.5625 172.9375 C67.01143509 178.30556277 60.83592354 182.52201016 54.375 186.6875 C53.55386719 187.24308594 52.73273438 187.79867187 51.88671875 188.37109375 C44.638197 193.0613137 36.58905755 196.1176777 28.375 198.6875 C27.75971436 198.88545166 27.14442871 199.08340332 26.51049805 199.28735352 C19.10244359 201.30214926 11.38744162 201.09554298 3.7668457 201.11303711 C1.3415592 201.12485836 -1.08111313 201.17407842 -3.50585938 201.22460938 C-17.45007299 201.37037978 -29.64278594 198.38481372 -42 191.75 C-42.66443115 191.40211426 -43.3288623 191.05422852 -44.01342773 190.69580078 C-45.31423868 190.00906379 -46.6116118 189.31575926 -47.90478516 188.61474609 C-49.36430461 187.82802244 -50.8425022 187.07610599 -52.32421875 186.33203125 C-71.07008176 176.26193955 -83.93096142 157.53703924 -92.625 138.6875 C-93.10791504 137.67913086 -93.10791504 137.67913086 -93.60058594 136.65039062 C-102.3612246 117.57166644 -102.07400256 88.38461727 -95.23828125 68.671875 C-94.71613381 67.33753459 -94.17812366 66.00930048 -93.625 64.6875 C-93.33028809 63.98302734 -93.03557617 63.27855469 -92.73193359 62.55273438 C-81.49150159 36.66992996 -60.97332823 16.1719516 -34.75 5.8125 C-32.72181607 5.06643779 -30.67808736 4.36201551 -28.625 3.6875 C-27.98095215 3.43218506 -27.3369043 3.17687012 -26.67333984 2.91381836 C-18.02702792 -0.19889118 -9.07783496 0.00689289 0 0 Z M-34.625 15.6875 C-30.5759032 17.03719893 -27.27185849 16.01740403 -23.1875 15.25 C-7.01933501 12.4917005 8.40922904 13.05891569 24.375 16.6875 C25.30570312 16.89246094 26.23640625 17.09742188 27.1953125 17.30859375 C40.59284749 20.77644445 53.24744691 28.86065209 60.6875 40.625 C61.30044922 41.72134766 61.30044922 41.72134766 61.92578125 42.83984375 C63.77453923 45.19688559 65.56273033 45.78776213 68.375 46.6875 C66.375 50.6875 64.375 54.6875 62.375 58.6875 C65.345 59.6775 65.345 59.6775 68.375 60.6875 C68.375 64.9775 68.375 69.2675 68.375 73.6875 C63.375 72.6875 63.375 72.6875 60.125 71.625 C54.93186054 70.32671513 49.90594753 69.6118473 44.875 71.75 C42.60154046 74.6865519 42.43830089 77.01604828 42.375 80.6875 C44.60522741 86.05788762 49.03182285 88.57053008 53.6875 91.6875 C69.93082349 102.73127818 69.93082349 102.73127818 72.375 112.6875 C73.36429519 121.32438051 72.36733884 128.19899174 67.5 135.5 C65.29895571 137.76578088 63.12370836 139.1604398 60.375 140.6875 C60.375 141.0175 60.375 141.3475 60.375 141.6875 C63.345 141.6875 66.315 141.6875 69.375 141.6875 C67.10080977 154.85386451 59.81514467 167.30769737 48.91796875 175.12890625 C27.12513495 188.48580439 -1.00888093 190.05724894 -25.54785156 184.23095703 C-40.72276274 180.41707906 -52.55199709 173.82567953 -61.625 160.6875 C-62.15480469 159.7696875 -62.68460938 158.851875 -63.23046875 157.90625 C-64.42252338 155.51029529 -64.42252338 155.51029529 -66.8125 154.875 C-67.410625 154.813125 -68.00875 154.75125 -68.625 154.6875 C-68.19725578 150.12489503 -66.15518433 147.08426506 -63.68359375 143.359375 C-62.53584031 141.87649269 -62.53584031 141.87649269 -62.625 140.6875 C-65.265 140.6875 -67.905 140.6875 -70.625 140.6875 C-70.625 113.9575 -70.625 87.2275 -70.625 59.6875 C-69.635 59.1925 -69.635 59.1925 -68.625 58.6875 C-68.955 57.6975 -69.285 56.7075 -69.625 55.6875 C-67.98419303 49.18819966 -65.05461104 43.25891086 -61.578125 37.5625 C-60.39842668 35.59233998 -60.39842668 35.59233998 -60.625 32.6875 C-77.29696851 45.38583871 -86.78580756 66.93565599 -90.02734375 87.203125 C-92.94364679 111.9717262 -87.08231969 136.85037383 -71.9375 156.8125 C-69.33450965 159.9607113 -66.58667657 162.87029546 -63.625 165.6875 C-62.87089844 166.54214844 -62.87089844 166.54214844 -62.1015625 167.4140625 C-47.1082492 183.84778145 -24.3145739 191.70600871 -2.55859375 192.96875 C20.92714826 193.51973515 45.07248879 186.04432214 62.375 169.8125 C82.20197681 150.5178428 92.94354291 128.24930527 93.5625 100.4375 C93.1820412 73.65320047 82.65784723 52.39920721 64.4375 33.4375 C48.73356968 18.19049874 28.23032961 9.49957202 6.375 8.6875 C5.34826172 8.62755859 5.34826172 8.62755859 4.30078125 8.56640625 C-9.30853601 8.1257236 -21.99626456 10.87130104 -34.625 15.6875 Z M-46.6953125 31.64453125 C-54.04162071 39.42210046 -57.59010363 48.38570451 -59.625 58.6875 C-58.96491943 58.72713867 -58.30483887 58.76677734 -57.62475586 58.80761719 C-54.60253949 58.99943665 -51.58284438 59.21823725 -48.5625 59.4375 C-47.52416016 59.499375 -46.48582031 59.56125 -45.41601562 59.625 C-38.48815535 60.15283697 -32.89890399 60.93510235 -28.1015625 66.43359375 C-24.64164514 73.30581492 -23.34213996 79.94822949 -25.37890625 87.47265625 C-27.60158633 93.94893585 -29.78452845 98.7938523 -35.625 102.6875 C-35.05158758 106.99202066 -33.52658368 109.80415473 -31.1875 113.4375 C-30.46730274 114.57721174 -29.74863299 115.71788974 -29.03125 116.859375 C-28.64582031 117.46974609 -28.26039062 118.08011719 -27.86328125 118.70898438 C-25.5906031 122.34025088 -23.38296893 126.00918585 -21.1875 129.6875 C-20.53213257 130.76402832 -20.53213257 130.76402832 -19.86352539 131.86230469 C-17.68668837 135.52121603 -16.32478021 138.44055802 -15.625 142.6875 C-13.16130468 143.91934766 -11.4355499 143.85482342 -8.6875 143.875 C-7.81222656 143.88917969 -6.93695313 143.90335937 -6.03515625 143.91796875 C-3.36255665 143.85413349 -3.36255665 143.85413349 -0.625 141.6875 C0.57254353 138.09486941 0.50698753 134.83293393 0.48852539 131.0949707 C0.48867142 130.32400055 0.48881744 129.5530304 0.4889679 128.75869751 C0.48827119 126.21019681 0.4804901 123.66176918 0.47265625 121.11328125 C0.47079121 119.34636983 0.46936771 117.5794579 0.46836853 115.81254578 C0.46455012 111.16171847 0.45472558 106.51092239 0.44366455 101.86010742 C0.43343591 97.11442487 0.42886779 92.36873727 0.42382812 87.62304688 C0.41310273 78.31118199 0.39551137 68.99934848 0.375 59.6875 C5.325 60.0175 10.275 60.3475 15.375 60.6875 C15.39768689 69.62438771 15.41599328 78.56125597 15.42681217 87.49816608 C15.43200742 91.64893485 15.43904333 95.79968271 15.45043945 99.95043945 C15.46138862 103.96399831 15.46730206 107.97753719 15.46987724 111.99110985 C15.47170999 113.51432802 15.47528836 115.03754522 15.48073006 116.56075478 C15.57220312 143.25241798 15.57220312 143.25241798 9.375 151.6875 C4.33013123 156.61771266 -2.46180521 156.03982934 -9.07739258 155.98095703 C-12.16455646 155.89729004 -14.67890691 155.66953103 -17.625 154.6875 C-17.955 150.3975 -18.285 146.1075 -18.625 141.6875 C-19.60339844 141.74035156 -20.58179688 141.79320312 -21.58984375 141.84765625 C-31.78582346 141.59701761 -31.78582346 141.59701761 -35.10595703 138.14990234 C-37.86832641 134.05244074 -39.7715645 129.54104612 -41.65185547 124.98681641 C-43.152388 121.44140361 -44.92740473 118.04661087 -46.6875 114.625 C-47.66877357 112.64687709 -48.64880735 110.66813524 -49.625 108.6875 C-51.605 108.6875 -53.585 108.6875 -55.625 108.6875 C-55.63958252 109.61087158 -55.65416504 110.53424316 -55.66918945 111.4855957 C-55.73026308 114.91327204 -55.8044161 118.34014662 -55.88745117 121.76733398 C-55.92069423 123.25029854 -55.94872823 124.73338944 -55.97143555 126.21655273 C-56.00499468 128.34934293 -56.05730638 130.48097612 -56.11328125 132.61328125 C-56.13946533 133.89630127 -56.16564941 135.17932129 -56.19262695 136.5012207 C-56.625 139.6875 -56.625 139.6875 -58.15698242 141.62963867 C-58.64142822 141.97873291 -59.12587402 142.32782715 -59.625 142.6875 C-56.39576316 146.6656644 -56.39576316 146.6656644 -52.875 150.375 C-51.625 151.6875 -51.625 151.6875 -50.625 154.6875 C-50.955 155.6775 -51.285 156.6675 -51.625 157.6875 C-44.71869199 169.61451218 -32.90747223 176.83444576 -20.015625 180.796875 C-1.25552531 185.06419381 20.22653688 183.92320794 37.375 174.6875 C46.08332819 169.06140853 53.40135507 161.84364115 56.375 151.6875 C56.79988191 148.69485352 57.10926062 145.69812782 57.375 142.6875 C56.37702393 142.657771 56.37702393 142.657771 55.35888672 142.62744141 C52.32221732 142.53173582 49.28619322 142.42224192 46.25 142.3125 C45.20328125 142.2815625 44.1565625 142.250625 43.078125 142.21875 C32.69231341 141.82435209 32.69231341 141.82435209 28.375 139.6875 C27.37003148 136.67259443 27.27164697 134.64568308 27.3125 131.5 C27.32152344 130.59894531 27.33054687 129.69789063 27.33984375 128.76953125 C27.35144531 128.08246094 27.36304687 127.39539063 27.375 126.6875 C30.45161563 127.12701652 33.24441121 127.64007949 36.171875 128.703125 C39.58729894 129.75274309 42.43397388 130.02074325 46 130.0625 C47.10601562 130.09085937 48.21203125 130.11921875 49.3515625 130.1484375 C53.03310415 129.58716888 54.14472537 128.61408103 56.375 125.6875 C57.62209477 121.55649859 57.59900405 119.33593278 56.1875 115.25 C53.35627613 110.85131655 48.89445626 108.53671528 44.55859375 105.79296875 C36.36310917 100.37288754 29.9024299 95.06247871 27.8515625 85.16015625 C26.81753846 78.20488132 27.66784975 72.71822021 31.375 66.6875 C35.72081082 61.72526212 40.32389133 59.04329485 46.92578125 58.2734375 C48.78783203 58.16902344 48.78783203 58.16902344 50.6875 58.0625 C51.94175781 57.98773438 53.19601563 57.91296875 54.48828125 57.8359375 C55.44089844 57.78695312 56.39351563 57.73796875 57.375 57.6875 C56.96507812 57.24019531 56.55515625 56.79289062 56.1328125 56.33203125 C50.43900665 49.9435266 50.43900665 49.9435266 49.375 45.6875 C49.87 44.2025 49.87 44.2025 50.375 42.6875 C43.46040246 30.74617202 31.71473937 23.56127927 18.6875 19.875 C-2.50590858 15.28446922 -29.51948545 16.9640602 -46.6953125 31.64453125 Z M-55.625 72.6875 C-55.625 80.2775 -55.625 87.8675 -55.625 95.6875 C-47.12914246 95.28638367 -47.12914246 95.28638367 -41.625 90.6875 C-39.55919829 85.71079588 -39.31902562 81.91139751 -40.625 76.6875 C-42.20385966 74.62811784 -43.31642423 73.84178789 -45.625 72.6875 C-48.925 72.6875 -52.225 72.6875 -55.625 72.6875 Z " fill="#3A532B" transform="translate(98.625,-0.6875)"/>
<path d="M0 0 C1.29658035 -0.00410889 1.29658035 -0.00410889 2.61935425 -0.00830078 C17.67793408 0.01678263 30.66726401 2.10515722 44.375 8.6875 C45.44524414 9.19192627 45.44524414 9.19192627 46.53710938 9.70654297 C55.02558793 13.83323043 62.38511294 19.37904949 69.375 25.6875 C70.73044922 26.88439453 70.73044922 26.88439453 72.11328125 28.10546875 C83.95051145 39.17252556 92.58155247 53.21371368 97.375 68.6875 C97.7162793 69.74638428 98.05755859 70.80526855 98.40917969 71.89624023 C101.07768515 80.85487872 101.95199255 89.04044313 101.78662109 98.36889648 C101.74971489 100.51659174 101.74560651 102.66256443 101.74609375 104.81054688 C101.61448585 131.07963385 90.48241091 154.08668463 72.5625 172.9375 C67.01143509 178.30556277 60.83592354 182.52201016 54.375 186.6875 C53.55386719 187.24308594 52.73273438 187.79867187 51.88671875 188.37109375 C44.638197 193.0613137 36.58905755 196.1176777 28.375 198.6875 C27.75971436 198.88545166 27.14442871 199.08340332 26.51049805 199.28735352 C19.10244359 201.30214926 11.38744162 201.09554298 3.7668457 201.11303711 C1.3415592 201.12485836 -1.08111313 201.17407842 -3.50585938 201.22460938 C-17.45007299 201.37037978 -29.64278594 198.38481372 -42 191.75 C-42.66443115 191.40211426 -43.3288623 191.05422852 -44.01342773 190.69580078 C-45.31423868 190.00906379 -46.6116118 189.31575926 -47.90478516 188.61474609 C-49.36430461 187.82802244 -50.8425022 187.07610599 -52.32421875 186.33203125 C-71.07008176 176.26193955 -83.93096142 157.53703924 -92.625 138.6875 C-93.10791504 137.67913086 -93.10791504 137.67913086 -93.60058594 136.65039062 C-102.3612246 117.57166644 -102.07400256 88.38461727 -95.23828125 68.671875 C-94.71613381 67.33753459 -94.17812366 66.00930048 -93.625 64.6875 C-93.33028809 63.98302734 -93.03557617 63.27855469 -92.73193359 62.55273438 C-81.49150159 36.66992996 -60.97332823 16.1719516 -34.75 5.8125 C-32.72181607 5.06643779 -30.67808736 4.36201551 -28.625 3.6875 C-27.98095215 3.43218506 -27.3369043 3.17687012 -26.67333984 2.91381836 C-18.02702792 -0.19889118 -9.07783496 0.00689289 0 0 Z M-34.625 15.6875 C-30.5759032 17.03719893 -27.27185849 16.01740403 -23.1875 15.25 C-7.01933501 12.4917005 8.40922904 13.05891569 24.375 16.6875 C25.30570312 16.89246094 26.23640625 17.09742188 27.1953125 17.30859375 C40.59284749 20.77644445 53.24744691 28.86065209 60.6875 40.625 C61.30044922 41.72134766 61.30044922 41.72134766 61.92578125 42.83984375 C63.77453923 45.19688559 65.56273033 45.78776213 68.375 46.6875 C68.09785156 47.23019531 67.82070312 47.77289063 67.53515625 48.33203125 C67.17292969 49.04746094 66.81070313 49.76289062 66.4375 50.5 C66.07785156 51.20769531 65.71820313 51.91539063 65.34765625 52.64453125 C64.26769484 54.80560285 64.26769484 54.80560285 63.375 57.6875 C57.33565 56.70148367 54.61133875 54.36678261 50.5625 49.85546875 C49.375 47.6875 49.375 47.6875 49.875 45.203125 C50.65734641 42.65008283 50.65734641 42.65008283 49.1875 40.44140625 C37.79417056 26.66628165 24.41959139 19.77522564 6.49243164 17.97802734 C-11.44519659 16.57577761 -32.59962665 19.5967092 -46.6953125 31.64453125 C-53.86718189 39.23742131 -57.9740783 48.45178549 -59.625 58.6875 C-58.635 58.6875 -57.645 58.6875 -56.625 58.6875 C-56.625 59.3475 -56.625 60.0075 -56.625 60.6875 C-57.90697266 60.77837891 -57.90697266 60.77837891 -59.21484375 60.87109375 C-60.31957031 60.95488281 -61.42429687 61.03867187 -62.5625 61.125 C-63.66464844 61.20621094 -64.76679687 61.28742187 -65.90234375 61.37109375 C-68.53609903 61.39168084 -68.53609903 61.39168084 -69.625 62.6875 C-69.955 61.6975 -70.285 60.7075 -70.625 59.6875 C-69.635 59.1925 -69.635 59.1925 -68.625 58.6875 C-68.955 57.6975 -69.285 56.7075 -69.625 55.6875 C-67.98419303 49.18819966 -65.05461104 43.25891086 -61.578125 37.5625 C-60.39842668 35.59233998 -60.39842668 35.59233998 -60.625 32.6875 C-77.29696851 45.38583871 -86.78580756 66.93565599 -90.02734375 87.203125 C-92.94364679 111.9717262 -87.08231969 136.85037383 -71.9375 156.8125 C-69.33450965 159.9607113 -66.58667657 162.87029546 -63.625 165.6875 C-62.87089844 166.54214844 -62.87089844 166.54214844 -62.1015625 167.4140625 C-47.1082492 183.84778145 -24.3145739 191.70600871 -2.55859375 192.96875 C20.92714826 193.51973515 45.07248879 186.04432214 62.375 169.8125 C82.20197681 150.5178428 92.94354291 128.24930527 93.5625 100.4375 C93.1820412 73.65320047 82.65784723 52.39920721 64.4375 33.4375 C48.73356968 18.19049874 28.23032961 9.49957202 6.375 8.6875 C5.34826172 8.62755859 5.34826172 8.62755859 4.30078125 8.56640625 C-9.30853601 8.1257236 -21.99626456 10.87130104 -34.625 15.6875 Z " fill="#75A651" transform="translate(98.625,-0.6875)"/>
<path d="M0 0 C2 2 2 2 2.4375 5.375 C2 9 2 9 -0.30078125 10.90234375 C-1.19152344 11.59457031 -2.08226562 12.28679688 -3 13 C-8.72111661 20.41410009 -11.79086119 28.02286319 -14 37 C-13.01 37.495 -13.01 37.495 -12 38 C-12 38.66 -12 39.32 -12 40 C-14 41 -14 41 -24 41 C-24 66.41 -24 91.82 -24 118 C-24.33 118 -24.66 118 -25 118 C-25.13068213 107.76876574 -25.26109132 97.53752804 -25.39115143 87.30628586 C-25.45155114 82.55558859 -25.5120451 77.80489255 -25.57275391 73.05419922 C-25.63133038 68.47009812 -25.68966 63.88599394 -25.74781799 59.30188751 C-25.77005713 57.55238991 -25.79238543 55.80289344 -25.81480408 54.05339813 C-25.84617266 51.60428658 -25.87722513 49.15517121 -25.90820312 46.70605469 C-25.91755386 45.98172745 -25.9269046 45.25740021 -25.9365387 44.51112366 C-26.08035829 33.05538947 -22.89385911 24.78283992 -17 15 C-18.36893239 14.94729537 -18.36893239 14.94729537 -21 16 C-21.71383061 17.30868945 -22.37408391 18.64705829 -23 20 C-24.05464155 21.39712824 -25.14070369 22.77085901 -26.25 24.125 C-41.13795824 43.09015842 -46.791382 66.32233347 -44.7265625 90.15625 C-42.42397119 107.70807809 -35.96505778 124.58538537 -24.4453125 138.16796875 C-23 140 -23 140 -21.9921875 142.17578125 C-21.07651575 144.35354867 -21.07651575 144.35354867 -18 145 C-18 146.32 -18 147.64 -18 149 C-16.68 149.66 -15.36 150.32 -14 151 C-14 151.66 -14 152.32 -14 153 C-12.68 153.66 -11.36 154.32 -10 155 C-10 155.66 -10 156.32 -10 157 C-9.34 157 -8.68 157 -8 157 C-8 157.66 -8 158.32 -8 159 C-7.07767578 159.29003906 -7.07767578 159.29003906 -6.13671875 159.5859375 C-5.32847656 159.84632813 -4.52023438 160.10671875 -3.6875 160.375 C-2.88699219 160.63023437 -2.08648437 160.88546875 -1.26171875 161.1484375 C1 162 1 162 4 164 C5.61129596 164.69913859 7.2380863 165.36314604 8.875 166 C9.71804687 166.33 10.56109375 166.66 11.4296875 167 C12.27789062 167.33 13.12609375 167.66 14 168 C14.73863281 168.34804687 15.47726563 168.69609375 16.23828125 169.0546875 C20.1988597 170.41035933 24.16035503 170.72518809 28.3125 171.125 C29.56643555 171.25455078 29.56643555 171.25455078 30.84570312 171.38671875 C32.8964763 171.59765542 34.94815903 171.79971646 37 172 C37 172.66 37 173.32 37 174 C37.66 174.33 38.32 174.66 39 175 C38.01 175.33 37.02 175.66 36 176 C36 176.66 36 177.32 36 178 C20.60212622 178.15833289 9.39478991 175.34417296 -4 168 C-4.98613281 167.47535156 -5.97226562 166.95070312 -6.98828125 166.41015625 C-25.84886044 155.42910792 -39.01265255 137.485462 -48 118 C-48.32194336 117.32775391 -48.64388672 116.65550781 -48.97558594 115.96289062 C-57.7362246 96.88416644 -57.44900256 67.69711727 -50.61328125 47.984375 C-50.09113381 46.65003459 -49.55312366 45.32180048 -49 44 C-48.70528809 43.29552734 -48.41057617 42.59105469 -48.10693359 41.86523438 C-43.58848201 31.46081233 -38.08084902 19.77742776 -28 14 C-27.67 13.34 -27.34 12.68 -27 12 C-26.34 12 -25.68 12 -25 12 C-25 11.34 -25 10.68 -25 10 C-22.5 8.375 -22.5 8.375 -20 7 C-19.505 7.495 -19.505 7.495 -19 8 C-18.34 7.34 -17.68 6.68 -17 6 C-16.34 6.66 -15.68 7.32 -15 8 C-12.37886292 8 -10.49064888 7.68707555 -8 7 C-8 6.01 -8 5.02 -8 4 C-7.4225 3.896875 -6.845 3.79375 -6.25 3.6875 C-3.67950842 2.90207202 -2.06342716 1.69495803 0 0 Z " fill="#72A64D" transform="translate(54,20)"/>
<path d="M0 0 C1.2375 -0.02416992 1.2375 -0.02416992 2.5 -0.04882812 C7.9700194 -0.05316941 11.74859942 0.82172396 16.625 3.3125 C16.625 7.6025 16.625 11.8925 16.625 16.3125 C12.51796175 17.33925956 12.0417176 17.35213836 8.4375 15.875 C3.83554407 14.21677456 -0.50632888 13.5597135 -5.375 14.3125 C-8.70482441 16.0441934 -8.70482441 16.0441934 -9.1875 19.625 C-9.37669815 23.34589694 -9.34460341 25.17904004 -7.375 28.3125 C-6.69308594 28.56386719 -6.01117188 28.81523438 -5.30859375 29.07421875 C-1.0854736 30.85681407 2.2988366 33.55504999 5.9375 36.3125 C6.67806641 36.8590625 7.41863281 37.405625 8.18164062 37.96875 C8.88095703 38.4946875 9.58027344 39.020625 10.30078125 39.5625 C11.2585144 40.28179687 11.2585144 40.28179687 12.2355957 41.015625 C12.69409912 41.44359375 13.15260254 41.8715625 13.625 42.3125 C13.625 42.9725 13.625 43.6325 13.625 44.3125 C14.615 44.6425 15.605 44.9725 16.625 45.3125 C21.2247302 52.65053112 21.93586306 61.30269705 20.1171875 69.640625 C18.35178613 74.95712107 15.37601568 79.78415795 10.375 82.5625 C9.7975 82.81 9.22 83.0575 8.625 83.3125 C8.295 83.9725 7.965 84.6325 7.625 85.3125 C3.43763332 85.40010181 -0.74949531 85.45309435 -4.9375 85.5 C-6.11892578 85.52513672 -7.30035156 85.55027344 -8.51757812 85.57617188 C-19.91684975 85.67196407 -19.91684975 85.67196407 -25.375 82.3125 C-26.37996852 79.29759443 -26.47835303 77.27068308 -26.4375 74.125 C-26.42847656 73.22394531 -26.41945313 72.32289063 -26.41015625 71.39453125 C-26.39855469 70.70746094 -26.38695313 70.02039063 -26.375 69.3125 C-22.10593668 67.84500948 -19.86242604 68.92538919 -15.83203125 70.59765625 C-10.87479561 72.03990446 -5.46541147 72.02278997 -0.375 71.3125 C2.36661611 69.34251145 2.6091435 68.37252818 3.5 65 C3.6465514 60.67673373 2.8780417 58.96479918 0.625 55.3125 C-1.93168164 53.21259506 -1.93168164 53.21259506 -4.9375 51.5 C-14.50155119 45.4137856 -23.35095432 39.2129393 -25.96484375 27.71875 C-26.98175083 20.82315155 -26.09632501 15.25853018 -22.375 9.3125 C-15.74140248 1.84970279 -9.72065025 -0.03761862 0 0 Z " fill="#BA2026" transform="translate(151.375,56.6875)"/>
<path d="M0 0 C2.47923801 -0.02685095 4.9581884 -0.04676547 7.4375 -0.0625 C8.14455078 -0.07087891 8.85160156 -0.07925781 9.58007812 -0.08789062 C11.38693559 -0.09653588 13.19387603 -0.05220011 15 0 C16.85095221 1.85095221 16.12776493 4.89011982 16.12939453 7.36474609 C16.13114685 8.02997284 16.13289917 8.69519958 16.13470459 9.38058472 C16.13912863 11.59489504 16.1361799 13.80912626 16.1328125 16.0234375 C16.13348618 17.5650738 16.13445674 19.10671001 16.13571167 20.64834595 C16.13719003 23.8917135 16.13503263 27.1350536 16.13037109 30.37841797 C16.12472129 34.50822369 16.12792144 38.63796374 16.13394356 42.76776695 C16.13758636 45.95936563 16.13639283 49.1509492 16.13381577 52.34254837 C16.13315425 53.86297234 16.13394744 55.38339774 16.13629532 56.90382004 C16.16788339 83.1511433 16.16788339 83.1511433 10 92 C5.02035347 96.71755987 -0.36693135 97.18161766 -6.9375 97.1875 C-7.65357422 97.19974609 -8.36964844 97.21199219 -9.10742188 97.22460938 C-16.41473504 97.24492628 -16.41473504 97.24492628 -19 95 C-19.609375 92.3984375 -19.609375 92.3984375 -19.75 89.375 C-19.83507812 87.87066406 -19.83507812 87.87066406 -19.921875 86.3359375 C-19.94765625 85.56507813 -19.9734375 84.79421875 -20 84 C-18.86820312 83.93941406 -17.73640625 83.87882812 -16.5703125 83.81640625 C-15.08852855 83.73200083 -13.6067584 83.64735283 -12.125 83.5625 C-11.37863281 83.52318359 -10.63226563 83.48386719 -9.86328125 83.44335938 C-5.80013136 83.28426376 -5.80013136 83.28426376 -2 82 C-0.80660086 78.41980259 -0.82415658 75.13580968 -0.79467773 71.4074707 C-0.77982834 70.25101547 -0.77982834 70.25101547 -0.76467896 69.07119751 C-0.73309044 66.52275667 -0.708317 63.97429718 -0.68359375 61.42578125 C-0.66302194 59.6588645 -0.6420254 57.89195264 -0.62062073 56.12504578 C-0.56542355 51.47427333 -0.51600388 46.82345664 -0.46777344 42.17260742 C-0.41754124 37.42688051 -0.36186414 32.68121786 -0.30664062 27.93554688 C-0.19908784 18.62375281 -0.09763644 9.31190295 0 0 Z " fill="#293D63" transform="translate(99,59)"/>
<path d="M0 0 C0.66 0 1.32 0 2 0 C7 5.47619048 7 5.47619048 7 8 C7.99 8.33 8.98 8.66 10 9 C11.25 11.375 11.25 11.375 12 14 C11.67 14.99 11.34 15.98 11 17 C12.21771395 19.19411698 12.21771395 19.19411698 14.0625 21.375 C14.65160156 22.12523437 15.24070312 22.87546875 15.84765625 23.6484375 C26.71083701 35.51710324 41.68221482 40.44825603 57.38671875 41.27734375 C74.50095392 41.81989121 92.53609772 39.22202 106.03515625 27.87109375 C113.57252062 20.69336505 117.14900087 12.17133183 119 2 C121.88211302 1.03929566 123.69850044 0.89418117 126.6875 0.9375 C127.89986328 0.95103516 127.89986328 0.95103516 129.13671875 0.96484375 C130.05904297 0.98224609 130.05904297 0.98224609 131 1 C132.38037544 5.14112633 130.80777941 7.69886715 129.125 11.5 C128.80909912 12.21397949 128.49319824 12.92795898 128.16772461 13.66357422 C121.16436612 28.76313415 110.12823561 36.96299452 95 43 C72.25551125 50.73132819 41.81644471 49.61421728 20.07470703 39.06591797 C10.896129 34.15655668 1.78661184 27.23095261 -2.0703125 17.22265625 C-2.37710938 16.48917969 -2.68390625 15.75570312 -3 15 C-5.54775306 14.10613836 -5.54775306 14.10613836 -8 14 C-7.55946315 9.15409462 -5.25494123 5.51858133 -2 2 C-1.34 2 -0.68 2 0 2 C0 1.34 0 0.68 0 0 Z " fill="#879D6C" transform="translate(37,140)"/>
<path d="M0 0 C2 2 2 2 2.4375 5.375 C2 9 2 9 -0.30078125 10.90234375 C-1.19152344 11.59457031 -2.08226562 12.28679688 -3 13 C-8.72111661 20.41410009 -11.79086119 28.02286319 -14 37 C-13.01 37.495 -13.01 37.495 -12 38 C-12 38.66 -12 39.32 -12 40 C-14 41 -14 41 -24 41 C-24 66.41 -24 91.82 -24 118 C-24.33 118 -24.66 118 -25 118 C-25.13068213 107.76876574 -25.26109132 97.53752804 -25.39115143 87.30628586 C-25.45155114 82.55558859 -25.5120451 77.80489255 -25.57275391 73.05419922 C-25.63133038 68.47009812 -25.68966 63.88599394 -25.74781799 59.30188751 C-25.77005713 57.55238991 -25.79238543 55.80289344 -25.81480408 54.05339813 C-25.84617266 51.60428658 -25.87722513 49.15517121 -25.90820312 46.70605469 C-25.91755386 45.98172745 -25.9269046 45.25740021 -25.9365387 44.51112366 C-26.08035829 33.05538947 -22.89385911 24.78283992 -17 15 C-18.36893239 14.94729537 -18.36893239 14.94729537 -21 16 C-21.71383061 17.30868945 -22.37408391 18.64705829 -23 20 C-24.05464155 21.39712824 -25.14070369 22.77085901 -26.25 24.125 C-37.41814346 38.35163917 -43.50020517 55.00246202 -45 73 C-45.66 73 -46.32 73 -47 73 C-46.67 69.7 -46.34 66.4 -46 63 C-46.66 63 -47.32 63 -48 63 C-48.33 61.68 -48.66 60.36 -49 59 C-50.485 59.495 -50.485 59.495 -52 60 C-52.33 62.97 -52.66 65.94 -53 69 C-53.33 69 -53.66 69 -54 69 C-53.54981105 50.05113778 -45.55128498 31.1263482 -33 17 C-31.35313767 15.9677102 -29.68930868 14.96125645 -28 14 C-27.67 13.34 -27.34 12.68 -27 12 C-26.34 12 -25.68 12 -25 12 C-25 11.34 -25 10.68 -25 10 C-22.5 8.375 -22.5 8.375 -20 7 C-19.505 7.495 -19.505 7.495 -19 8 C-18.34 7.34 -17.68 6.68 -17 6 C-16.34 6.66 -15.68 7.32 -15 8 C-12.37886292 8 -10.49064888 7.68707555 -8 7 C-8 6.01 -8 5.02 -8 4 C-7.4225 3.896875 -6.845 3.79375 -6.25 3.6875 C-3.67950842 2.90207202 -2.06342716 1.69495803 0 0 Z " fill="#75A352" transform="translate(54,20)"/>
<path d="M0 0 C0.93070312 0.20496094 1.86140625 0.40992188 2.8203125 0.62109375 C16.21784749 4.08894445 28.87244691 12.17315209 36.3125 23.9375 C36.72113281 24.66839844 37.12976563 25.39929688 37.55078125 26.15234375 C39.39890989 28.50858322 41.22816483 28.99164887 44 30 C44.33 30.66 44.66 31.32 45 32 C43.45845021 35.6589314 41.47469602 38.89830701 39 42 C36.0625 43.0625 36.0625 43.0625 33 42 C28.87896545 38.8552273 25.15528386 35.19877739 24 30 C24.33 29.01 24.66 28.02 25 27 C18.95676672 16.09682388 8.47924478 9.84668732 -3 6 C-4.72203625 5.59351076 -6.45102708 5.21456466 -8.1875 4.875 C-9.445625 4.58625 -10.70375 4.2975 -12 4 C-12.495 2.515 -12.495 2.515 -13 1 C-16.97937771 1.14039552 -20.95844294 1.28831319 -24.9375 1.4375 C-26.61295898 1.49647461 -26.61295898 1.49647461 -28.32226562 1.55664062 C-40.91547238 1.94311966 -40.91547238 1.94311966 -52.9375 5.30078125 C-56.52740326 6.51781285 -60.23620174 6.74733762 -64 7 C-63 5 -63 5 -60.6875 3.875 C-58 3 -58 3 -54 3 C-54.33 2.01 -54.66 1.02 -55 0 C-36.26598863 -3.80110376 -18.68984649 -4.24769238 0 0 Z " fill="#7A9D5B" transform="translate(123,15)"/>
<path d="M0 0 C1.21236328 0.01353516 1.21236328 0.01353516 2.44921875 0.02734375 C3.37154297 0.04474609 3.37154297 0.04474609 4.3125 0.0625 C5.69287544 4.20362633 4.12027941 6.76136715 2.4375 10.5625 C2.12159912 11.27647949 1.80569824 11.99045898 1.48022461 12.72607422 C-5.52932521 27.83898294 -16.55984229 36.00426741 -31.6875 42.0625 C-39.2609147 44.7318183 -46.69108888 45.65779507 -54.6875 46.0625 C-55.1825 44.5775 -55.1825 44.5775 -55.6875 43.0625 C-54.18978948 41.56478948 -52.77681649 41.83984599 -50.6875 41.6875 C-46.41386936 41.27172413 -42.73263697 40.20718785 -38.73046875 38.68359375 C-36.6875 38.0625 -36.6875 38.0625 -32.6875 38.0625 C-32.6875 37.4025 -32.6875 36.7425 -32.6875 36.0625 C-31.615 35.629375 -30.5425 35.19625 -29.4375 34.75 C-26.50999233 33.50802705 -24.20291059 32.01893046 -21.6875 30.0625 C-21.0275 30.0625 -20.3675 30.0625 -19.6875 30.0625 C-19.64625 29.4025 -19.605 28.7425 -19.5625 28.0625 C-18.6795985 25.03540914 -17.82627833 23.82621856 -15.875 21.4375 C-11.16953997 15.47649655 -9.03432884 8.46339114 -7.6875 1.0625 C-4.80538698 0.10179566 -2.98899956 -0.04331883 0 0 Z " fill="#638849" transform="translate(163.6875,140.9375)"/>
<path d="M0 0 C0.78375 0.04125 1.5675 0.0825 2.375 0.125 C3 1.9375 3 1.9375 3.375 4.125 C2.385 5.61 2.385 5.61 1.375 7.125 C1.69801773 8.46086992 2.03232656 9.79403651 2.375 11.125 C1.8515625 13.34375 1.8515625 13.34375 1 15.625 C-0.03291289 18.4437903 -0.94661884 21.19864991 -1.625 24.125 C-0.965 24.455 -0.305 24.785 0.375 25.125 C0.375 25.785 0.375 26.445 0.375 27.125 C-1.625 28.125 -1.625 28.125 -11.625 28.125 C-11.625 53.535 -11.625 78.945 -11.625 105.125 C-11.955 105.125 -12.285 105.125 -12.625 105.125 C-12.75568213 94.89376574 -12.88609132 84.66252804 -13.01615143 74.43128586 C-13.07655114 69.68058859 -13.1370451 64.92989255 -13.19775391 60.17919922 C-13.25633038 55.59509812 -13.31466 51.01099394 -13.37281799 46.42688751 C-13.39505713 44.67738991 -13.41738543 42.92789344 -13.43980408 41.17839813 C-13.47117266 38.72928658 -13.50222513 36.28017121 -13.53320312 33.83105469 C-13.54255386 33.10672745 -13.5519046 32.38240021 -13.5615387 31.63612366 C-13.70251391 20.40695435 -10.75098957 11.60569814 -4.625 2.125 C-2.625 0.125 -2.625 0.125 0 0 Z " fill="#597745" transform="translate(41.625,32.875)"/>
<path d="M0 0 C1 3 1 3 0.28515625 4.90234375 C-2.2844812 9.1795997 -4.7005904 12.36700274 -9.34765625 14.3828125 C-15.8360521 15.89263068 -23.97990133 16.10810412 -30.4375 14.328125 C-32 13 -32 13 -32.609375 10.3984375 C-32.65578125 9.40070313 -32.7021875 8.40296875 -32.75 7.375 C-32.80671875 6.37210938 -32.8634375 5.36921875 -32.921875 4.3359375 C-32.94765625 3.56507813 -32.9734375 2.79421875 -33 2 C-32.05125 2.165 -31.1025 2.33 -30.125 2.5 C-23.75446139 3.40637744 -17.2745394 3.52110046 -11 2 C-10.01 2 -9.02 2 -8 2 C-7.34 3.65 -6.68 5.3 -6 7 C-3.72478134 4.83312509 -1.84205838 2.54379491 0 0 Z " fill="#223861" transform="translate(112,141)"/>
<path d="M0 0 C0.5775 0.66 1.155 1.32 1.75 2 C3.99653977 4.44290923 3.99653977 4.44290923 8 4 C9.02028865 5.31787285 10.01971384 6.65210653 11 8 C11.66 8.165 12.32 8.33 13 8.5 C15 9 15 9 16.8125 10.6875 C18.41095724 13.80028514 17.81377668 15.67091359 17 19 C17 19.33 17 19.66 17 20 C17.66 20.66 18.32 21.32 19 22 C18.625 24.625 18.625 24.625 18 27 C15 27 15 27 12 26 C11.34 25.34 10.68 24.68 10 24 C9.01 23.67 8.02 23.34 7 23 C7 22.34 7 21.68 7 21 C6.34 21 5.68 21 5 21 C5 20.34 5 19.68 5 19 C4.195625 18.87625 3.39125 18.7525 2.5625 18.625 C1.2940625 18.315625 1.2940625 18.315625 0 18 C-0.33 17.34 -0.66 16.68 -1 16 C-0.67 15.34 -0.34 14.68 0 14 C-0.66 14 -1.32 14 -2 14 C-1.814375 13.236875 -1.62875 12.47375 -1.4375 11.6875 C-0.77180827 8.91032625 -0.77180827 8.91032625 -2 6 C-1.0625 2.8125 -1.0625 2.8125 0 0 Z " fill="#BC2025" transform="translate(137,82)"/>
<path d="M0 0 C4.54951717 1.2696327 7.40691022 2.97424018 11 6 C12.31138904 6.70885894 13.63777017 7.39456452 15 8 C15 8.66 15 9.32 15 10 C15.58652344 10.08507813 16.17304688 10.17015625 16.77734375 10.2578125 C19.62894031 11.21001522 20.67010903 12.56348889 22.5625 14.875 C27.05692624 20.33589782 27.05692624 20.33589782 33 24 C32.505 24.495 32.505 24.495 32 25 C31.95907063 27.33297433 31.95758277 29.66705225 32 32 C31.505 31.01 31.505 31.01 31 30 C29.7315625 30.2475 29.7315625 30.2475 28.4375 30.5 C23.83457812 29.83048409 22.86683821 27.93535853 20.04296875 24.42578125 C13.87019881 17.09635462 6.68300406 11.07350808 -2 7 C-2 5.35 -2 3.7 -2 2 C-1.34 2 -0.68 2 0 2 C0 1.34 0 0.68 0 0 Z " fill="#72A44E" transform="translate(146,13)"/>
<path d="M0 0 C0.66 0 1.32 0 2 0 C3.6875 2.3125 3.6875 2.3125 5 5 C4.67 5.99 4.34 6.98 4 8 C4.99 8.33 5.98 8.66 7 9 C8 12 8 12 7.75 14.25 C8.0782688 17.86095682 9.65875492 19.59213798 11.90625 22.3515625 C13 24 13 24 13 27 C12.67 27.99 12.34 28.98 12 30 C11.34 30 10.68 30 10 30 C10 29.34 10 28.68 10 28 C9.443125 27.731875 8.88625 27.46375 8.3125 27.1875 C7.549375 26.795625 6.78625 26.40375 6 26 C5.175 25.5875 4.35 25.175 3.5 24.75 C0.4091963 22.58643741 -1.13175507 20.25213006 -3 17 C-3 16.34 -3 15.68 -3 15 C-4.65 14.67 -6.3 14.34 -8 14 C-7.55946315 9.15409462 -5.25494123 5.51858133 -2 2 C-1.34 2 -0.68 2 0 2 C0 1.34 0 0.68 0 0 Z " fill="#73A74B" transform="translate(37,140)"/>
<path d="M0 0 C3.10906896 0.36151965 5.84659483 0.94319921 8.78515625 2.03125 C12.27288083 3.08222897 15.11684187 3.23354233 18.75 3.1875 C19.87921875 3.18105469 21.0084375 3.17460937 22.171875 3.16796875 C24.94968753 3.18907219 24.94968753 3.18907219 27 2 C26 5 26 5 23 7 C20.95703125 7.4140625 20.95703125 7.4140625 18.8125 7.625 C17.554375 7.74875 16.29625 7.8725 15 8 C15.969375 8.2475 16.93875 8.495 17.9375 8.75 C18.948125 9.1625 19.95875 9.575 21 10 C21.875 12.125 21.875 12.125 22 14 C19.03878992 14.85380428 16.3912356 15.13517764 13.3125 15.125 C12.52488281 15.12757813 11.73726562 15.13015625 10.92578125 15.1328125 C9 15 9 15 8 14 C6.33382885 13.95936168 4.66611905 13.957279 3 14 C3 13.34 3 12.68 3 12 C1.68 11.67 0.36 11.34 -1 11 C-1.02688151 9.35425434 -1.04634123 7.70838587 -1.0625 6.0625 C-1.07410156 5.14597656 -1.08570312 4.22945312 -1.09765625 3.28515625 C-1 1 -1 1 0 0 Z " fill="#BD2028" transform="translate(126,125)"/>
<path d="M0 0 C0.66 0.33 1.32 0.66 2 1 C-3.38948214 18.96494048 -13.53454914 32.30809632 -27 45 C-27.99 44.67 -28.98 44.34 -30 44 C-29.1875 42.0625 -29.1875 42.0625 -28 40 C-26.515 39.505 -26.515 39.505 -25 39 C-24.195625 38.195625 -23.39125 37.39125 -22.5625 36.5625 C-20 34 -20 34 -17.75 33 C-15.72470549 32.11389298 -15.72470549 32.11389298 -15.3125 29.5625 C-15.209375 28.716875 -15.10625 27.87125 -15 27 C-14.67 26.01 -14.34 25.02 -14 24 C-14.33 23.01 -14.66 22.02 -15 21 C-15.66 21 -16.32 21 -17 21 C-17.33 22.32 -17.66 23.64 -18 25 C-18.66 25 -19.32 25 -20 25 C-20.165 25.680625 -20.33 26.36125 -20.5 27.0625 C-22.71301627 31.39632353 -26.25519489 33.97802936 -30 37 C-30.66 36.67 -31.32 36.34 -32 36 C-31.45472656 35.50113281 -30.90945312 35.00226563 -30.34765625 34.48828125 C-21.72215655 26.27562598 -14.90649779 16.87962552 -10 6 C-9.34 6 -8.68 6 -8 6 C-7.875 9.375 -7.875 9.375 -8 13 C-8.66 13.66 -9.32 14.32 -10 15 C-9.34 16.32 -8.68 17.64 -8 19 C-7.87625 18.195625 -7.7525 17.39125 -7.625 16.5625 C-7.315625 15.2940625 -7.315625 15.2940625 -7 14 C-6.34 13.67 -5.68 13.34 -5 13 C-4.855625 11.865625 -4.71125 10.73125 -4.5625 9.5625 C-4.376875 8.386875 -4.19125 7.21125 -4 6 C-3.01 5.34 -2.02 4.68 -1 4 C-0.27617533 1.94074861 -0.27617533 1.94074861 0 0 Z " fill="#7BA25C" transform="translate(193,132)"/>
<path d="M0 0 C4.97306516 0.49730652 8.63799813 1.55302334 13 4 C13 4.66 13 5.32 13 6 C13.639375 6.12375 14.27875 6.2475 14.9375 6.375 C15.9584375 6.684375 15.9584375 6.684375 17 7 C17.33 7.66 17.66 8.32 18 9 C19.051875 9.37125 20.10375 9.7425 21.1875 10.125 C25.94243936 12.06037821 28.62747933 15.53358209 31 20 C31.5 23.375 31.5 23.375 31 26 C29.04783565 27.95216435 27.46800047 28.84826645 25 30 C23.5 28.9375 23.5 28.9375 22 27 C21.8125 23.3125 21.8125 23.3125 22 20 C21.01 20 20.02 20 19 20 C18.79375 19.0925 18.5875 18.185 18.375 17.25 C16.67650676 13.23537961 14.6518568 12.22286935 11 10 C11 9.34 11 8.68 11 8 C8.525 7.01 8.525 7.01 6 6 C6 5.34 6 4.68 6 4 C4.35 3.67 2.7 3.34 1 3 C0.67 2.01 0.34 1.02 0 0 Z " fill="#70A14A" transform="translate(130,21)"/>
<path d="M0 0 C0.33 0.66 0.66 1.32 1 2 C1.66 2.33 2.32 2.66 3 3 C1.865625 3.309375 0.73125 3.61875 -0.4375 3.9375 C-3.78775099 4.62924531 -3.78775099 4.62924531 -5 6 C-3.04096255 5.52372025 -1.08278903 5.04388577 0.875 4.5625 C1.96554688 4.29566406 3.05609375 4.02882813 4.1796875 3.75390625 C6.92484721 3.1213522 6.92484721 3.1213522 9 2 C16.36916867 0.9191886 23.62523047 0.88170975 31.0625 0.9375 C32.21427734 0.94201172 33.36605469 0.94652344 34.55273438 0.95117188 C37.36854518 0.96285574 40.18424398 0.97923719 43 1 C43 1.66 43 2.32 43 3 C42.07703125 2.96519531 41.1540625 2.93039063 40.203125 2.89453125 C23.04245227 2.53843033 7.66828028 4.87999236 -8 12 C-8.99 12.33 -9.98 12.66 -11 13 C-11.66 10.69 -12.32 8.38 -13 6 C-14.98 7.32 -16.96 8.64 -19 10 C-19.33 8.02 -19.66 6.04 -20 4 C-17.36 3.67 -14.72 3.34 -12 3 C-12 2.34 -12 1.68 -12 1 C-11.07767578 1.01740234 -11.07767578 1.01740234 -10.13671875 1.03515625 C-8.92435547 1.04869141 -8.92435547 1.04869141 -7.6875 1.0625 C-6.88699219 1.07410156 -6.08648437 1.08570312 -5.26171875 1.09765625 C-2.83138666 1.09657855 -2.83138666 1.09657855 0 0 Z " fill="#759A5A" transform="translate(67,15)"/>
<path d="M0 0 C0.6875 1.75 0.6875 1.75 1 4 C-0.43407725 6.64172124 -1.3211374 7.76724711 -4.1875 8.75 C-5.0846875 8.87375 -5.0846875 8.87375 -6 9 C-6.495 8.01 -6.495 8.01 -7 7 C-10.61692533 5.79435822 -13.89892592 5.89426717 -17.66015625 5.9375 C-18.40583359 5.94128662 -19.15151093 5.94507324 -19.91978455 5.94897461 C-22.30074842 5.9611878 -24.6815911 5.97982077 -27.0625 6 C-30.19921542 6.02652613 -33.33587124 6.04655064 -36.47265625 6.0625 C-37.19663101 6.07079834 -37.92060577 6.07909668 -38.66651917 6.08764648 C-43.77440681 6.11279659 -43.77440681 6.11279659 -46 5 C-46 4.01 -46 3.02 -46 2 C-42.0482858 0.70167171 -38.05486564 0.85606609 -33.9453125 0.8671875 C-33.16614471 0.86623077 -32.38697693 0.86527405 -31.584198 0.86428833 C-29.93845539 0.86360898 -28.29271008 0.86544619 -26.64697266 0.86962891 C-24.1408885 0.87496616 -21.63498474 0.8696831 -19.12890625 0.86328125 C-17.52604127 0.86394236 -15.92317641 0.86522419 -14.3203125 0.8671875 C-13.57637238 0.86516327 -12.83243225 0.86313904 -12.06594849 0.86105347 C-7.9395393 0.8794411 -4.04831203 1.1973518 0 2 C0 1.34 0 0.68 0 0 Z " fill="#6FA94B" transform="translate(122,1)"/>
<path d="M0 0 C1.875 0.3125 1.875 0.3125 4 1 C4.66 1.99 5.32 2.98 6 4 C8.05925139 4.72382467 8.05925139 4.72382467 10 5 C10 5.66 10 6.32 10 7 C11.32 7.33 12.64 7.66 14 8 C14 8.66 14 9.32 14 10 C14.73605469 10.12117187 15.47210938 10.24234375 16.23046875 10.3671875 C17.69419922 10.61855469 17.69419922 10.61855469 19.1875 10.875 C20.15042969 11.03742188 21.11335938 11.19984375 22.10546875 11.3671875 C25 12 25 12 27.30859375 13 C30.27865762 14.10353607 32.8007777 14.40620968 35.95703125 14.6328125 C37.06884766 14.71660156 38.18066406 14.80039063 39.32617188 14.88671875 C41.0519043 15.00466797 41.0519043 15.00466797 42.8125 15.125 C44.56723633 15.25455078 44.56723633 15.25455078 46.35742188 15.38671875 C49.23783897 15.59834123 52.1185853 15.802508 55 16 C55 16.33 55 16.66 55 17 C50.05 17 45.1 17 40 17 C40 17.66 40 18.32 40 19 C31.65799873 18.96955474 24.32046085 17.46851984 16.375 15.0625 C15.49811523 14.79743652 14.62123047 14.53237305 13.71777344 14.25927734 C10.05794997 13.11085981 7.22082364 12.14721576 4 10 C3.67 9.01 3.34 8.02 3 7 C2.34 6.67 1.68 6.34 1 6 C1 5.34 1 4.68 1 4 C0.34 4 -0.32 4 -1 4 C-0.67 2.68 -0.34 1.36 0 0 Z " fill="#739353" transform="translate(52,168)"/>
<path d="M0 0 C0.763125 0.0825 1.52625 0.165 2.3125 0.25 C3.67945906 5.41406756 3.24345532 9.30345705 0.9375 14.125 C0.40125 14.82625 -0.135 15.5275 -0.6875 16.25 C-1.6775 16.25 -2.6675 16.25 -3.6875 16.25 C-3.935 17.013125 -4.1825 17.77625 -4.4375 18.5625 C-5.80880672 21.51080945 -6.9226079 22.60834532 -9.6875 24.25 C-10.3475 24.25 -11.0075 24.25 -11.6875 24.25 C-12.0175 25.57 -12.3475 26.89 -12.6875 28.25 C-14.3375 27.92 -15.9875 27.59 -17.6875 27.25 C-17.6875 26.59 -17.6875 25.93 -17.6875 25.25 C-16.6975 25.25 -15.7075 25.25 -14.6875 25.25 C-14.31625 23.88875 -14.31625 23.88875 -13.9375 22.5 C-12.6875 19.25 -12.6875 19.25 -10.70703125 17.390625 C-8.32100237 14.86152669 -7.86028176 13.1165731 -7.125 9.75 C-5.07311644 0.47191781 -5.07311644 0.47191781 0 0 Z " fill="#608943" transform="translate(162.6875,142.75)"/>
<path d="M0 0 C0 0.99 0 1.98 0 3 C3.63 3 7.26 3 11 3 C11.495 3.99 11.495 3.99 12 5 C9.36 5.33 6.72 5.66 4 6 C4 5.34 4 4.68 4 4 C0.02062229 4.14039552 -3.95844294 4.28831319 -7.9375 4.4375 C-9.61295898 4.49647461 -9.61295898 4.49647461 -11.32226562 4.55664062 C-23.91547238 4.94311966 -23.91547238 4.94311966 -35.9375 8.30078125 C-39.52740326 9.51781285 -43.23620174 9.74733762 -47 10 C-46 8 -46 8 -43.6875 6.875 C-41 6 -41 6 -37 6 C-37.33 5.01 -37.66 4.02 -38 3 C-25.19952965 0.40280312 -13.04940454 -0.36778071 0 0 Z " fill="#6F9754" transform="translate(106,12)"/>
<path d="M0 0 C-0.598125 1.010625 -1.19625 2.02125 -1.8125 3.0625 C-3.84038109 6.59701106 -5.40307877 10.25070667 -7 14 C-8.93510801 17.61781062 -11.11489387 20.11489387 -14 23 C-14.33 23.99 -14.66 24.98 -15 26 C-15.8971875 25.319375 -15.8971875 25.319375 -16.8125 24.625 C-18.50590652 23.36704087 -20.24477086 22.17015276 -22 21 C-20.68 20.67 -19.36 20.34 -18 20 C-17.87625 19.21625 -17.7525 18.4325 -17.625 17.625 C-17 15 -17 15 -15 13 C-14.20182869 11.36724957 -13.43441035 9.71932719 -12.6875 8.0625 C-9.73728226 2.0668962 -6.94778437 -0.59552437 0 0 Z " fill="#76A74E" transform="translate(28,40)"/>
<path d="M0 0 C2 2 2 2 2.4375 5.375 C2 9 2 9 -0.125 10.875 C-1.07375 11.57625 -2.0225 12.2775 -3 13 C-5.1583506 15.90138933 -7.09109158 18.93000295 -9 22 C-9.99 21.34 -10.98 20.68 -12 20 C-11.01 18.35 -10.02 16.7 -9 15 C-11.64 14.34 -14.28 13.68 -17 13 C-16.34 11.02 -15.68 9.04 -15 7 C-14.401875 7.185625 -13.80375 7.37125 -13.1875 7.5625 C-10.83591238 8.22093687 -10.83591238 8.22093687 -8 7 C-8 6.01 -8 5.02 -8 4 C-7.4225 3.896875 -6.845 3.79375 -6.25 3.6875 C-3.67950842 2.90207202 -2.06342716 1.69495803 0 0 Z " fill="#669048" transform="translate(54,20)"/>
<path d="M0 0 C3.65766864 0.57709883 5.28050214 1.98314512 7.875 4.5625 C26.25859236 21.35144359 50.92484373 25.81355347 75 25 C75 25.99 75 26.98 75 28 C69.06 28 63.12 28 57 28 C57 27.34 57 26.68 57 26 C56.31035156 26.02320313 55.62070313 26.04640625 54.91015625 26.0703125 C45.59017009 26.24929714 38.51727514 24.78545562 30 21 C28.1128125 20.4740625 28.1128125 20.4740625 26.1875 19.9375 C23 19 23 19 21 17 C19.4792296 16.24785002 17.93442705 15.54332588 16.375 14.875 C15.55773438 14.52179688 14.74046875 14.16859375 13.8984375 13.8046875 C13.27195312 13.53914062 12.64546875 13.27359375 12 13 C12 12.34 12 11.68 12 11 C11.34 11 10.68 11 10 11 C7.875 9.125 7.875 9.125 6 7 C6 6.34 6 5.68 6 5 C5.01 4.67 4.02 4.34 3 4 C2.67 3.01 2.34 2.02 2 1 C1.34 0.67 0.68 0.34 0 0 Z " fill="#84A862" transform="translate(34,166)"/>
<path d="M0 0 C0.495 0.99 0.495 0.99 1 2 C0.09373216 3.2989839 -0.82549537 4.58893167 -1.75 5.875 C-2.51570313 6.95394531 -2.51570313 6.95394531 -3.296875 8.0546875 C-5.08808884 10.10061524 -6.56981455 10.86659418 -9 12 C-9.33 12.66 -9.66 13.32 -10 14 C-14.18736668 14.08760181 -18.37449531 14.14059435 -22.5625 14.1875 C-24.33463867 14.22520508 -24.33463867 14.22520508 -26.14257812 14.26367188 C-32.55143598 14.31752782 -37.3583648 14.15633335 -43 11 C-42.67 10.01 -42.34 9.02 -42 8 C-41.34 8.33 -40.68 8.66 -40 9 C-40 9.66 -40 10.32 -40 11 C-38.02 10.67 -36.04 10.34 -34 10 C-34 10.66 -34 11.32 -34 12 C-31.87439563 11.69163768 -29.74952935 11.37818386 -27.625 11.0625 C-26.44164062 10.88847656 -25.25828125 10.71445313 -24.0390625 10.53515625 C-21.09297619 10.16537214 -21.09297619 10.16537214 -19 9 C-17.32345271 9.27942455 -15.65391846 9.60828247 -14 10 C-13.67 9.01 -13.34 8.02 -13 7 C-12.01 7 -11.02 7 -10 7 C-10.495 6.01 -10.495 6.01 -11 5 C-11.99 5.495 -11.99 5.495 -13 6 C-11.25 2.125 -11.25 2.125 -9 1 C-8.5875 1.495 -8.175 1.99 -7.75 2.5 C-5.87797662 4.43386092 -5.87797662 4.43386092 -2 4 C-2 3.01 -2 2.02 -2 1 C-1.34 0.67 -0.68 0.34 0 0 Z " fill="#AE1F26" transform="translate(169,128)"/>
<path d="M0 0 C0.99 0 1.98 0 3 0 C5.21854707 4.62197306 6.38281159 7.76824163 6 13 C6.66 13 7.32 13 8 13 C8.53518883 15.0379507 9.05254093 17.08059009 9.5625 19.125 C9.85253906 20.26195313 10.14257812 21.39890625 10.44140625 22.5703125 C11.01056927 26.06489384 10.78666101 28.57203347 10 32 C10.66 32 11.32 32 12 32 C12 38.6 12 45.2 12 52 C11.34 52 10.68 52 10 52 C10.02320313 52.61746094 10.04640625 53.23492187 10.0703125 53.87109375 C10.25890998 62.72170415 8.74595553 69.99727681 5 78 C4.01 78 3.02 78 2 78 C2.39832031 76.96552734 2.39832031 76.96552734 2.8046875 75.91015625 C11.57634992 52.57241208 10.47499858 29.22475572 2 6 C1.32719944 4.00205509 0.65843064 2.00272653 0 0 Z " fill="#849E68" transform="translate(182,58)"/>
<path d="M0 0 C0.83402344 -0.020625 1.66804687 -0.04125 2.52734375 -0.0625 C8.05088323 -0.09718471 11.82864319 0.72281677 16.75 3.25 C16.75 7.54 16.75 11.83 16.75 16.25 C12.64353089 17.27661728 12.25283225 17.3119388 8.6875 15.8125 C3.35605197 13.85763572 -1.636269 13.96669021 -7.25 14.25 C-7.25 13.59 -7.25 12.93 -7.25 12.25 C0.67 11.755 0.67 11.755 8.75 11.25 C8.09 10.59 7.43 9.93 6.75 9.25 C9.06 9.25 11.37 9.25 13.75 9.25 C13.42 7.27 13.09 5.29 12.75 3.25 C3.84 3.25 -5.07 3.25 -14.25 3.25 C-10.26388581 -0.73611419 -5.28035325 0.0320507 0 0 Z " fill="#A6252C" transform="translate(151.25,56.75)"/>
<path d="M0 0 C0.66 0 1.32 0 2 0 C2.15855469 0.99257812 2.31710937 1.98515625 2.48046875 3.0078125 C4.64525977 15.8801034 8.11535246 27.54665047 14.9609375 38.79296875 C16 41 16 41 15 44 C11 39.5 11 39.5 11 35 C10.34 35 9.68 35 9 35 C8.72285156 34.36191406 8.44570312 33.72382813 8.16015625 33.06640625 C7.79792969 32.24011719 7.43570312 31.41382813 7.0625 30.5625 C6.70285156 29.73878906 6.34320313 28.91507813 5.97265625 28.06640625 C5.16877677 26.05589883 5.16877677 26.05589883 4 25 C3.85884839 22.32941149 3.95752893 19.67567762 4 17 C3.01 16.67 2.02 16.34 1 16 C0.67 14.35 0.34 12.7 0 11 C-2.62713287 14.9406993 -1.7189418 17.58475959 -1 22 C-0.80654914 23.49924415 -0.61876484 24.99923376 -0.4375 26.5 C-0.293125 27.655 -0.14875 28.81 0 30 C-2.10263102 26.84605348 -3.01776618 24.17536296 -4.125 20.5625 C-4.47820313 19.42941406 -4.83140625 18.29632813 -5.1953125 17.12890625 C-6 14 -6 14 -6 10 C-5.01 9.34 -4.02 8.68 -3 8 C-2.39938767 6.09821215 -2.39938767 6.09821215 -2 4 C-1.36345658 2.6520257 -0.70394612 1.31403276 0 0 Z " fill="#759A59" transform="translate(7,108)"/>
<path d="M0 0 C0.99 0.33 1.98 0.66 3 1 C3 1.66 3 2.32 3 3 C3.99 3.33 4.98 3.66 6 4 C7.25 6.375 7.25 6.375 8 9 C7.67 9.99 7.34 10.98 7 12 C8.25543763 14.19296743 8.25543763 14.19296743 10.125 16.375 C10.76824219 17.16777344 11.41148438 17.96054688 12.07421875 18.77734375 C13.63876402 20.58307652 15.22054024 22.27991637 16.9375 23.9375 C17.618125 24.618125 18.29875 25.29875 19 26 C19 26.66 19 27.32 19 28 C16.53199953 26.84826645 14.95216435 25.95216435 13 24 C12.34 24 11.68 24 11 24 C10.67 24.99 10.34 25.98 10 27 C10.66 27 11.32 27 12 27 C12 27.66 12 28.32 12 29 C12.99 29.33 13.98 29.66 15 30 C15 30.66 15 31.32 15 32 C7.47071278 29.34260451 3.28201745 25.54896787 -1 19 C2.11198065 20.49836105 5.0534615 22.19933758 8 24 C8 23.01 8 22.02 8 21 C8.33 20.67 8.66 20.34 9 20 C8.566875 19.4225 8.13375 18.845 7.6875 18.25 C7.130625 17.5075 6.57375 16.765 6 16 C5.443125 15.38125 4.88625 14.7625 4.3125 14.125 C2.5875487 11.3322217 3 9.23272554 3 6 C1.56249809 4.31201173 1.56249809 4.31201173 0 3 C0 2.01 0 1.02 0 0 Z " fill="#799F5F" transform="translate(41,145)"/>
<path d="M0 0 C0.66 0.33 1.32 0.66 2 1 C-1.74947731 3.46394223 -5.33741468 5.72786674 -9.5 7.4375 C-13.21921375 9.09786328 -15.97346203 11.13102187 -19.10546875 13.6953125 C-21.08872189 15.0610992 -22.64792206 15.57234947 -25 16 C-25 16.66 -25 17.32 -25 18 C-25.99 18 -26.98 18 -28 18 C-28.268125 18.598125 -28.53625 19.19625 -28.8125 19.8125 C-29.99917406 21.99847854 -31.09599113 23.41332594 -33 25 C-33.66 25 -34.32 25 -35 25 C-35 25.66 -35 26.32 -35 27 C-35.66 27 -36.32 27 -37 27 C-37.33 27.99 -37.66 28.98 -38 30 C-38.99 29.67 -39.98 29.34 -41 29 C-29.26561594 16.76901975 -16.41085981 5.4702866 0 0 Z " fill="#8AA967" transform="translate(64,5)"/>
<path d="M0 0 C2.35546875 0.5546875 2.35546875 0.5546875 5 2 C6.36328125 5.2578125 6.36328125 5.2578125 7.3125 9.125 C7.48072266 9.78371094 7.64894531 10.44242188 7.82226562 11.12109375 C8.23355877 12.74276388 8.61930382 14.37087555 9 16 C8.34 16 7.68 16 7 16 C7 17.98 7 19.96 7 22 C6.67 21.34 6.34 20.68 6 20 C5.01 19.67 4.02 19.34 3 19 C1.65743047 14.68964518 1 11.52218352 1 7 C0.34 7 -0.32 7 -1 7 C-1.04254356 5.00045254 -1.04080783 2.99958364 -1 1 C-0.67 0.67 -0.34 0.34 0 0 Z " fill="#71A74B" transform="translate(189,64)"/>
<path d="M0 0 C0.99 0 1.98 0 3 0 C2.67 1.98 2.34 3.96 2 6 C2.99 6 3.98 6 5 6 C5.33 4.68 5.66 3.36 6 2 C6.99 2.33 7.98 2.66 9 3 C8.09232898 4.44319692 7.17343894 5.87934106 6.25 7.3125 C5.73953125 8.11300781 5.2290625 8.91351563 4.703125 9.73828125 C2.96374831 12.04814159 1.48271291 13.52588921 -1 15 C-4.25 14.6875 -4.25 14.6875 -7 14 C-7 13.34 -7 12.68 -7 12 C-5.68 11.67 -4.36 11.34 -3 11 C-2.67 11.66 -2.34 12.32 -2 13 C-2 12.01 -2 11.02 -2 10 C-2.66 9.67 -3.32 9.34 -4 9 C-4 8.34 -4 7.68 -4 7 C-4.99 6.67 -5.98 6.34 -7 6 C-6.67 5.34 -6.34 4.68 -6 4 C-3.4375 3.375 -3.4375 3.375 -1 3 C-0.67 2.01 -0.34 1.02 0 0 Z " fill="#39502A" transform="translate(64,88)"/>
<path d="M0 0 C1.65 0 3.3 0 5 0 C5.33 0.66 5.66 1.32 6 2 C5.34 2 4.68 2 4 2 C4 2.99 4 3.98 4 5 C4.54269531 4.6390625 5.08539063 4.278125 5.64453125 3.90625 C6.35996094 3.4421875 7.07539063 2.978125 7.8125 2.5 C8.52019531 2.0359375 9.22789062 1.571875 9.95703125 1.09375 C12 0 12 0 15 0 C15.33 1.98 15.66 3.96 16 6 C12.86386793 8.37585763 11.4937133 9.04408154 7.5 8.6875 C6.345 8.460625 5.19 8.23375 4 8 C2.33371045 7.96454703 0.66590197 7.94951812 -1 8 C-1.125 2.25 -1.125 2.25 0 0 Z " fill="#BC2129" transform="translate(149,60)"/>
<path d="M0 0 C0.66 0.33 1.32 0.66 2 1 C-2.36963741 6.53487406 -5.00043771 8.76798981 -12 10 C-15.99455416 10.43461531 -19.99018093 10.74604479 -24 11 C-24.33 10.01 -24.66 9.02 -25 8 C-23.50228948 6.50228948 -22.08931649 6.77734599 -20 6.625 C-15.72636936 6.20922413 -12.04513697 5.14468785 -8.04296875 3.62109375 C-6 3 -6 3 -2 3 C-2 2.34 -2 1.68 -2 1 C-1.34 0.67 -0.68 0.34 0 0 Z " fill="#688E4D" transform="translate(133,176)"/>
<path d="M0 0 C9.60243199 -0.32860033 19.32879424 -0.54859028 27 6 C29.18702362 8.98893229 30 10.27944454 30 14 C27.625 13.3125 27.625 13.3125 25 12 C24.71125 11.195625 24.4225 10.39125 24.125 9.5625 C22.72912288 6.38300212 21.18767683 5.87352691 18.04980469 4.62231445 C14.58710858 3.57105047 11.16114812 3.42773576 7.5625 3.3125 C6.46518555 3.26125977 6.46518555 3.26125977 5.34570312 3.20898438 C3.56430438 3.12748247 1.78218251 3.06204477 0 3 C0 2.01 0 1.02 0 0 Z " fill="#3D4D36" transform="translate(43,58)"/>
<path d="M0 0 C0.33 0.66 0.66 1.32 1 2 C2.65 1.67 4.3 1.34 6 1 C6.268125 1.721875 6.53625 2.44375 6.8125 3.1875 C7.91421164 6.05626304 7.91421164 6.05626304 9.75 8.5625 C11 11 11 11 10.5 13.25 C8.5195524 15.56052219 6.96355871 15.68804645 4 16 C1.5705484 12.3558226 1.83820425 10.28758728 2 6 C1.01 6 0.02 6 -1 6 C-1.33 5.01 -1.66 4.02 -2 3 C-1.34 2.01 -0.68 1.02 0 0 Z " fill="#6FA849" transform="translate(150,35)"/>
<path d="M0 0 C0.226875 0.639375 0.45375 1.27875 0.6875 1.9375 C1.85250896 4.27193661 1.85250896 4.27193661 4.625 4.75 C5.40875 4.8325 6.1925 4.915 7 5 C7.33 6.32 7.66 7.64 8 9 C8.66 9 9.32 9 10 9 C10.33 10.32 10.66 11.64 11 13 C12.32 13.33 13.64 13.66 15 14 C15 14.66 15 15.32 15 16 C15.66 16 16.32 16 17 16 C17 16.66 17 17.32 17 18 C17.804375 18.12375 18.60875 18.2475 19.4375 18.375 C20.7059375 18.684375 20.7059375 18.684375 22 19 C22.33 19.66 22.66 20.32 23 21 C23.61875 21.226875 24.2375 21.45375 24.875 21.6875 C28.17807009 23.72763153 28.78289595 26.40954306 30 30 C30.1875 32.9375 30.1875 32.9375 30 35 C28.85587358 32.71174716 27.76821068 30.45005399 26.7734375 28.08984375 C24.72104422 24.51397792 22.94854321 23.28863277 19.4375 21.1875 C11.92040809 16.42545877 4.11058712 11.12924418 0 3 C0 2.01 0 1.02 0 0 Z " fill="#99202C" transform="translate(127,87)"/>
<path d="M0 0 C0.90878906 0.47050781 1.81757812 0.94101563 2.75390625 1.42578125 C17.06310336 8.60923675 31.1624799 10.43783588 47 11 C46.67 11.66 46.34 12.32 46 13 C24.79390693 13.23161995 24.79390693 13.23161995 17 10 C14.67121264 9.43815969 12.33574682 8.9422275 9.98828125 8.46484375 C8 8 8 8 6 7 C6 6.34 6 5.68 6 5 C4.68 4.67 3.36 4.34 2 4 C2 3.34 2 2.68 2 2 C1.34 2 0.68 2 0 2 C0 1.34 0 0.68 0 0 Z " fill="#8CA775" transform="translate(60,171)"/>
<path d="M0 0 C1.875 0.3125 1.875 0.3125 4 1 C4.66 1.99 5.32 2.98 6 4 C8.05925139 4.72382467 8.05925139 4.72382467 10 5 C10 5.66 10 6.32 10 7 C11.32 7.33 12.64 7.66 14 8 C14 8.66 14 9.32 14 10 C15.32 10.66 16.64 11.32 18 12 C17 13 17 13 13.8125 13.25 C9.72408141 12.98190698 7.42721303 12.20320838 4 10 C3.67 9.01 3.34 8.02 3 7 C2.34 6.67 1.68 6.34 1 6 C1 5.34 1 4.68 1 4 C0.34 4 -0.32 4 -1 4 C-0.67 2.68 -0.34 1.36 0 0 Z " fill="#719F4B" transform="translate(52,168)"/>
<path d="M0 0 C14.54313738 1.90861877 28.44261803 17.07659063 38 27 C37.01 27.33 36.02 27.66 35 28 C33.33333333 26.33333333 31.66666667 24.66666667 30 23 C29.071875 22.113125 28.14375 21.22625 27.1875 20.3125 C25 18 25 18 25 16 C24.360625 15.87625 23.72125 15.7525 23.0625 15.625 C22.381875 15.41875 21.70125 15.2125 21 15 C20.67 14.34 20.34 13.68 20 13 C18.02477154 11.95191959 16.02518491 10.9479589 14 10 C14 9.34 14 8.68 14 8 C12.3603125 7.566875 12.3603125 7.566875 10.6875 7.125 C7 6 7 6 4 4 C2.67432801 3.31822584 1.34246312 2.64808564 0 2 C0 1.34 0 0.68 0 0 Z " fill="#88A76B" transform="translate(140,8)"/>
<path d="M0 0 C1.21236328 0.01353516 1.21236328 0.01353516 2.44921875 0.02734375 C3.37154297 0.04474609 3.37154297 0.04474609 4.3125 0.0625 C5.3125 3.0625 5.3125 3.0625 4.375 5.25 C4.024375 5.848125 3.67375 6.44625 3.3125 7.0625 C2.6525 7.0625 1.9925 7.0625 1.3125 7.0625 C1.3125 5.7425 1.3125 4.4225 1.3125 3.0625 C-0.3375 3.0625 -1.9875 3.0625 -3.6875 3.0625 C-5.55733976 6.53505955 -7.01483742 9.93373885 -8.1875 13.6875 C-9.24226571 16.96776613 -10.25981749 19.52926607 -12.6875 22.0625 C-13.3475 22.3925 -14.0075 22.7225 -14.6875 23.0625 C-15.33963292 25.08713255 -15.33963292 25.08713255 -15.6875 27.0625 C-16.6775 27.0625 -17.6675 27.0625 -18.6875 27.0625 C-17.25820311 24.05345392 -15.57355285 21.34655016 -13.75 18.5625 C-10.75197242 13.67979004 -9.47487184 9.03588026 -8.42578125 3.43359375 C-8.18214844 2.65113281 -7.93851563 1.86867187 -7.6875 1.0625 C-4.80538698 0.10179566 -2.98899956 -0.04331883 0 0 Z " fill="#778B5E" transform="translate(163.6875,140.9375)"/>
<path d="M0 0 C2.02045442 0.60183749 4.02111039 1.27306096 6 2 C6.33 2.66 6.66 3.32 7 4 C4.03 8.455 4.03 8.455 1 13 C-4 12 -4 12 -7 10 C-6 7 -6 7 -3 5 C-2.01 4.67 -1.02 4.34 0 4 C0 2.68 0 1.36 0 0 Z " fill="#76A74E" transform="translate(161,43)"/>
<path d="M0 0 C1.11375 0.1546875 1.11375 0.1546875 2.25 0.3125 C2.875 2.125 2.875 2.125 3.25 4.3125 C2.26 5.7975 2.26 5.7975 1.25 7.3125 C1.57380126 8.64818021 1.90657551 9.98173011 2.25 11.3125 C1.59 11.9725 0.93 12.6325 0.25 13.3125 C-0.08 12.6525 -0.41 11.9925 -0.75 11.3125 C-1.20375 11.8075 -1.6575 12.3025 -2.125 12.8125 C-3.75 14.3125 -3.75 14.3125 -5.75 14.3125 C-6.08 14.9725 -6.41 15.6325 -6.75 16.3125 C-7.81351675 12.92858307 -7.96442982 11.7320366 -6.3125 8.5 C-5.796875 7.778125 -5.28125 7.05625 -4.75 6.3125 C-5.41 5.9825 -6.07 5.6525 -6.75 5.3125 C-3.42692308 0.38942308 -3.42692308 0.38942308 0 0 Z " fill="#58803B" transform="translate(41.75,32.6875)"/>
<path d="M0 0 C1.15177734 0.00451172 2.30355469 0.00902344 3.49023438 0.01367188 C6.30604518 0.02535574 9.12174398 0.04173719 11.9375 0.0625 C11.9375 0.7225 11.9375 1.3825 11.9375 2.0625 C11.01453125 2.02769531 10.0915625 1.99289063 9.140625 1.95703125 C1.10726758 1.79033115 -6.60758362 2.19960535 -14.5625 3.375 C-15.79758301 3.55156128 -15.79758301 3.55156128 -17.05761719 3.73168945 C-21.07276617 4.36713679 -24.68954094 5.21585417 -28.46875 6.73046875 C-32.0625 8.0625 -32.0625 8.0625 -35.0625 7.0625 C-34.0625 5.0625 -34.0625 5.0625 -31.65625 4.02734375 C-30.12484375 3.51880859 -30.12484375 3.51880859 -28.5625 3 C-27.5621875 2.65839844 -26.561875 2.31679688 -25.53125 1.96484375 C-17.11185029 -0.22533793 -8.65129001 -0.06489716 0 0 Z " fill="#93B178" transform="translate(98.0625,15.9375)"/>
<path d="M0 0 C1.28142883 -0.00143509 1.28142883 -0.00143509 2.58874512 -0.00289917 C4.39428786 -0.00357943 6.19983306 -0.00173585 8.00537109 0.00244141 C10.77056364 0.00779182 13.53559376 0.00249123 16.30078125 -0.00390625 C18.05468786 -0.00324544 19.80859437 -0.00196422 21.5625 0 C22.39068237 -0.00202423 23.21886475 -0.00404846 24.07214355 -0.00613403 C27.39412382 0.00744934 30.10778425 0.07499058 33.28125 1.1328125 C33.28125 1.7928125 33.28125 2.4528125 33.28125 3.1328125 C29.53125 4.2578125 29.53125 4.2578125 27.28125 3.1328125 C24.53285362 3.07023006 21.80975938 3.06583878 19.0625 3.10546875 C17.39192913 3.11811237 15.72135611 3.13047353 14.05078125 3.14257812 C11.41057673 3.16743927 8.77048305 3.19544835 6.13037109 3.22875977 C3.58690664 3.25887537 1.04358535 3.27670852 -1.5 3.29296875 C-2.68909973 3.31315819 -2.68909973 3.31315819 -3.90222168 3.33375549 C-5.84220056 3.34268365 -7.78209512 3.24667917 -9.71875 3.1328125 C-10.37875 2.4728125 -11.03875 1.8128125 -11.71875 1.1328125 C-7.80475663 -0.17185196 -4.07902995 -0.0099699 0 0 Z " fill="#81B15C" transform="translate(88.71875,-0.1328125)"/>
<path d="M0 0 C3.48670834 1.1094072 6.77484237 2.26337666 10 4 C10.33 3.01 10.66 2.02 11 1 C11.103125 1.61875 11.20625 2.2375 11.3125 2.875 C11.87525373 5.36526484 11.87525373 5.36526484 15 7 C15.99 7 16.98 7 18 7 C18.33 7.66 18.66 8.32 19 9 C20.0725 9.28875 21.145 9.5775 22.25 9.875 C26.05880345 11.01764104 28.09137572 12.35579611 31 15 C27.80593676 16.06911105 26.23634545 16.0026092 23.20703125 14.55859375 C22.49804688 14.2248877 21.7890625 13.89118164 21.05859375 13.54736328 C19.94677734 12.99798096 19.94677734 12.99798096 18.8125 12.4375 C18.05453125 12.07124512 17.2965625 11.70499023 16.515625 11.32763672 C2.12267002 4.24534005 2.12267002 4.24534005 0 0 Z " fill="#7CA45C" transform="translate(40,180)"/>
<path d="M0 0 C4.2841203 1.52452929 5.86470292 4.38803458 8.25 8.125 C8.95640625 9.22070312 9.6628125 10.31640625 10.390625 11.4453125 C10.92171875 12.28835937 11.4528125 13.13140625 12 14 C10.02 14.99 10.02 14.99 8 16 C7.71125 15.2575 7.4225 14.515 7.125 13.75 C6.17697356 11.43260203 5.15154089 9.22082885 4 7 C3.87625 7.5775 3.7525 8.155 3.625 8.75 C2.99274387 11.02612206 2.08136532 12.90760206 1 15 C-0.00578589 13.71283353 -1.00446798 12.42011342 -2 11.125 C-2.556875 10.40570313 -3.11375 9.68640625 -3.6875 8.9453125 C-5 7 -5 7 -5 5 C-2.525 5.495 -2.525 5.495 0 6 C0 4.02 0 2.04 0 0 Z " fill="#7AA05A" transform="translate(177,37)"/>
<path d="M0 0 C5.92863717 1.16651426 11.38798394 2.75519358 17 5 C13.90521121 6.03159626 12.47368607 5.97482862 9.3125 5.5625 C8.50425781 5.46066406 7.69601563 5.35882812 6.86328125 5.25390625 C6.24839844 5.17011719 5.63351563 5.08632812 5 5 C4.67 5.66 4.34 6.32 4 7 C4.66 7.66 5.32 8.32 6 9 C1.47907032 10.45606519 -1.51648796 9.27032841 -6 8 C-5 6 -5 6 -2 5 C-2.33 4.34 -2.66 3.68 -3 3 C-2.01 3 -1.02 3 0 3 C0 2.01 0 1.02 0 0 Z " fill="#72A84D" transform="translate(123,2)"/>
<path d="M0 0 C0.66 0 1.32 0 2 0 C3.625 2 3.625 2 5 4 C4.525625 4.4125 4.05125 4.825 3.5625 5.25 C1.84694476 6.86506095 1.84694476 6.86506095 1.640625 8.9765625 C1 11 1 11 -0.70703125 12.1953125 C-1.40183594 12.50210938 -2.09664062 12.80890625 -2.8125 13.125 C-3.49957031 13.43695313 -4.18664062 13.74890625 -4.89453125 14.0703125 C-5.58933594 14.37710938 -6.28414062 14.68390625 -7 15 C-8.33654939 15.66019538 -9.67087441 16.32498341 -11 17 C-9.5360077 13.93124691 -7.85990364 11.09565257 -6 8.25 C-5.484375 7.45078125 -4.96875 6.6515625 -4.4375 5.828125 C-3.963125 5.22484375 -3.48875 4.6215625 -3 4 C-2.34 4 -1.68 4 -1 4 C-0.67 2.68 -0.34 1.36 0 0 Z " fill="#71A74C" transform="translate(176,153)"/>
<path d="M0 0 C0.33 0 0.66 0 1 0 C1 1.65 1 3.3 1 5 C2.98 4.67 4.96 4.34 7 4 C8.4049404 7.89060419 7.69513239 11.23092362 7.0625 15.25 C6.86785156 16.51328125 6.67320313 17.7765625 6.47265625 19.078125 C6.31667969 20.04234375 6.16070312 21.0065625 6 22 C5.34 22 4.68 22 4 22 C4.33 18.7 4.66 15.4 5 12 C4.34 12 3.68 12 3 12 C2.67 10.68 2.34 9.36 2 8 C1.01 8.33 0.02 8.66 -1 9 C-1.33 11.97 -1.66 14.94 -2 18 C-2.33 18 -2.66 18 -3 18 C-2.57045059 11.74892565 -1.98598493 5.95795479 0 0 Z " fill="#769C56" transform="translate(3,71)"/>
<path d="M0 0 C4.92385516 1.60622848 8.69913079 4.45335142 12.8125 7.5 C13.85180664 8.24830078 13.85180664 8.24830078 14.91210938 9.01171875 C15.56630859 9.49253906 16.22050781 9.97335938 16.89453125 10.46875 C17.49112549 10.90638672 18.08771973 11.34402344 18.70239258 11.79492188 C19.13060303 12.19259766 19.55881348 12.59027344 20 13 C20 13.66 20 14.32 20 15 C20.66 15.33 21.32 15.66 22 16 C21.01 16.33 20.02 16.66 19 17 C18.67 16.01 18.34 15.02 18 14 C15.03 13.505 15.03 13.505 12 13 C11.67 14.32 11.34 15.64 11 17 C9.68 16.67 8.36 16.34 7 16 C7.55001578 14.34995265 8.10586008 12.70166705 8.6875 11.0625 C9.15231527 8.9594026 9.15231527 8.9594026 8.375 6.8125 C7.11499425 4.73583313 7.11499425 4.73583313 4.5 4.5 C3.675 4.335 2.85 4.17 2 4 C0.6875 1.9375 0.6875 1.9375 0 0 Z " fill="#A02730" transform="translate(145,86)"/>
<path d="M0 0 C3.62732306 0.57908483 5.23725928 1.93999739 7.8125 4.5 C12.48889734 8.84685256 17.58334114 11.92531847 23.12231445 15.02929688 C24.77711493 15.97043164 26.39295765 16.979454 28 18 C28 18.66 28 19.32 28 20 C23.25 19.25 23.25 19.25 21 17 C19.4792296 16.24785002 17.93442705 15.54332588 16.375 14.875 C15.55773438 14.52179688 14.74046875 14.16859375 13.8984375 13.8046875 C13.27195312 13.53914062 12.64546875 13.27359375 12 13 C12 12.34 12 11.68 12 11 C11.34 11 10.68 11 10 11 C7.875 9.125 7.875 9.125 6 7 C6 6.34 6 5.68 6 5 C5.01 4.67 4.02 4.34 3 4 C2.67 3.01 2.34 2.02 2 1 C1.34 0.67 0.68 0.34 0 0 Z " fill="#7C9F5E" transform="translate(34,166)"/>
<path d="M0 0 C3.66336097 1.22112032 4.35042014 2.86720482 6.23046875 6.11328125 C7 8 7 8 7 12 C7.66 12.33 8.32 12.66 9 13 C9 13.66 9 14.32 9 15 C1.884273 14.02967359 1.884273 14.02967359 -1 12 C-1.75 9.875 -1.75 9.875 -2 8 C-1.34 8 -0.68 8 0 8 C1.09658936 4.71023192 0.79953138 3.28696233 0 0 Z " fill="#435439" transform="translate(76,129)"/>
<path d="M0 0 C0.66 0.33 1.32 0.66 2 1 C0.8125 4.4375 0.8125 4.4375 -1 8 C-3.61328125 8.72265625 -3.61328125 8.72265625 -6 9 C-6.04898438 10.04800781 -6.09796875 11.09601563 -6.1484375 12.17578125 C-6.22348143 13.55471354 -6.29902857 14.9336185 -6.375 16.3125 C-6.4059375 17.00279297 -6.436875 17.69308594 -6.46875 18.40429688 C-6.68124919 22.06990789 -6.91933861 23.87900792 -9 27 C-10.38798199 19.06436384 -10.16723179 13.04372807 -6 6 C-4.12764095 3.71763532 -2.2467671 1.94038977 0 0 Z " fill="#9B2630" transform="translate(135,60)"/>
<path d="M0 0 C0.99 0.33 1.98 0.66 3 1 C3 1.66 3 2.32 3 3 C3.99 3.33 4.98 3.66 6 4 C7.25 6.375 7.25 6.375 8 9 C7.67 9.99 7.34 10.98 7 12 C8.43010279 14.36056405 8.43010279 14.36056405 10.4375 16.6875 C11.09621094 17.49574219 11.75492188 18.30398437 12.43359375 19.13671875 C12.95050781 19.75160156 13.46742187 20.36648437 14 21 C13.01 21.33 12.02 21.66 11 22 C7.73276501 18.96613894 5.18343987 15.89899976 3 12 C2.96079185 10.00038436 2.95556653 7.99950636 3 6 C1.56249809 4.31201173 1.56249809 4.31201173 0 3 C0 2.01 0 1.02 0 0 Z " fill="#7FA065" transform="translate(41,145)"/>
<path d="M0 0 C0.66 0 1.32 0 2 0 C2 0.66 2 1.32 2 2 C4.64 2.33 7.28 2.66 10 3 C10 3.66 10 4.32 10 5 C10.99 5 11.98 5 13 5 C13 5.66 13 6.32 13 7 C10.29816945 8.35091528 7.88191794 8.33858058 4.875 8.5625 C3.77929688 8.64628906 2.68359375 8.73007812 1.5546875 8.81640625 C0.71164063 8.87699219 -0.13140625 8.93757813 -1 9 C-0.7215625 8.1028125 -0.7215625 8.1028125 -0.4375 7.1875 C0.22093687 4.83591238 0.22093687 4.83591238 -1 2 C-0.67 1.34 -0.34 0.68 0 0 Z " fill="#67735A" transform="translate(29,53)"/>
<path d="M0 0 C0.99 0 1.98 0 3 0 C5.21854707 4.62197306 6.38281159 7.76824163 6 13 C6.66 13 7.32 13 8 13 C11.44419134 26.6332574 11.44419134 26.6332574 11 33 C10.01 33.495 10.01 33.495 9 34 C8.85304687 32.94683594 8.70609375 31.89367187 8.5546875 30.80859375 C7.15677778 21.58066779 4.95184167 13.42920276 1.20703125 4.87890625 C0 2 0 2 0 0 Z " fill="#7F9E62" transform="translate(182,58)"/>
<path d="M0 0 C0 0.66 0 1.32 0 2 C1.65 2 3.3 2 5 2 C5 2.99 5 3.98 5 5 C4.01 5.66 3.02 6.32 2 7 C1.34 6.67 0.68 6.34 0 6 C-1.175625 6 -2.35125 6 -3.5625 6 C-4.696875 6 -5.83125 6 -7 6 C-7.33 5.67 -7.66 5.34 -8 5 C-9.32594105 4.63837971 -10.65938457 4.30271961 -12 4 C-11 2 -11 2 -7.6875 0.875 C-4 0 -4 0 0 0 Z " fill="#70A747" transform="translate(124,191)"/>
<path d="M0 0 C5.78898419 -0.20674944 10.42932723 0.40837921 16 2 C15.34 3.32 14.68 4.64 14 6 C15.65 6 17.3 6 19 6 C19 6.66 19 7.32 19 8 C19.66 8 20.32 8 21 8 C20.67 8.66 20.34 9.32 20 10 C15.05 8.68 10.1 7.36 5 6 C5 5.34 5 4.68 5 4 C6.98 3.67 8.96 3.34 11 3 C7.37 2.67 3.74 2.34 0 2 C0 1.34 0 0.68 0 0 Z " fill="#82A16E" transform="translate(106,13)"/>
<path d="M0 0 C9.80958175 2.85243157 17.46412801 7.10547882 25 14 C24.01 14.495 24.01 14.495 23 15 C19.26415094 13.52830189 19.26415094 13.52830189 18 11 C17.01 10.67 16.02 10.34 15 10 C14.67 9.34 14.34 8.68 14 8 C11.65062258 7.0416631 9.33781945 6.18214554 6.9375 5.375 C6.27427734 5.14554688 5.61105469 4.91609375 4.92773438 4.6796875 C3.28740331 4.11324224 1.64397843 3.55577077 0 3 C0 2.01 0 1.02 0 0 Z " fill="#7A9B5E" transform="translate(128,17)"/>
<path d="M0 0 C5.30580403 -0.08813628 10.29330919 0.19711114 15.5625 0.9375 C23.3631395 1.99058633 31.141062 2.57092005 39 3 C39 3.33 39 3.66 39 4 C34.56262836 4.08817767 30.12548653 4.14078435 25.6875 4.1875 C24.44419922 4.21263672 23.20089844 4.23777344 21.91992188 4.26367188 C14.11662913 4.32511512 7.39269267 3.54126795 0 1 C0 0.67 0 0.34 0 0 Z " fill="#80B064" transform="translate(70,196)"/>
<path d="M0 0 C0.66 0.66 1.32 1.32 2 2 C0.71937515 3.7074998 -0.61767557 5.37373596 -2 7 C-2.66 7 -3.32 7 -4 7 C-4.268125 7.86625 -4.53625 8.7325 -4.8125 9.625 C-5.97111987 12.91791964 -7.38209839 15.91127875 -9 19 C-9.66 19 -10.32 19 -11 19 C-11.33 20.65 -11.66 22.3 -12 24 C-12.99 24.33 -13.98 24.66 -15 25 C-12.28383057 15.75109487 -6.48533062 7.09333037 0 0 Z " fill="#7E9F60" transform="translate(22,36)"/>
<path d="M0 0 C0.99 0.33 1.98 0.66 3 1 C3 1.66 3 2.32 3 3 C4.98 2.67 6.96 2.34 9 2 C9 2.66 9 3.32 9 4 C12.06273831 4.05410136 15.12451452 4.09372225 18.1875 4.125 C19.05181641 4.14175781 19.91613281 4.15851563 20.80664062 4.17578125 C25.43421368 4.21124158 28.72143908 3.91769774 33 2 C33.99 2.33 34.98 2.66 36 3 C34.21098133 5.31164474 33.32402881 5.95192182 30.38378906 6.38818359 C29.35479492 6.39156738 28.32580078 6.39495117 27.265625 6.3984375 C26.13382813 6.40230469 25.00203125 6.40617188 23.8359375 6.41015625 C22.65257812 6.39855469 21.46921875 6.38695312 20.25 6.375 C18.49816406 6.39240234 18.49816406 6.39240234 16.7109375 6.41015625 C10.38109338 6.38862617 5.57823114 6.08270668 0 3 C0 2.01 0 1.02 0 0 Z " fill="#882A2F" transform="translate(126,136)"/>
<path d="M0 0 C0.99 0.33 1.98 0.66 3 1 C-6.59849435 13.17942284 -6.59849435 13.17942284 -12 17 C-12.66 17 -13.32 17 -14 17 C-14 15.35 -14 13.7 -14 12 C-12.35 12 -10.7 12 -9 12 C-8.8453125 11.1028125 -8.8453125 11.1028125 -8.6875 10.1875 C-7.89496146 7.66578648 -7.08408591 6.60314301 -5 5 C-4.01 5 -3.02 5 -2 5 C-1.34 3.35 -0.68 1.7 0 0 Z " fill="#658551" transform="translate(159,159)"/>
<path d="M0 0 C3.3 0.33 6.6 0.66 10 1 C10.33 2.65 10.66 4.3 11 6 C7.7 6.33 4.4 6.66 1 7 C1 6.34 1 5.68 1 5 C0.34 4.34 -0.32 3.68 -1 3 C-0.67 2.01 -0.34 1.02 0 0 Z " fill="#6BA949" transform="translate(127,6)"/>
<path d="M0 0 C0.86753906 -0.020625 1.73507813 -0.04125 2.62890625 -0.0625 C3.46292969 -0.06765625 4.29695313 -0.0728125 5.15625 -0.078125 C5.91744141 -0.0874707 6.67863281 -0.09681641 7.46289062 -0.10644531 C9.5 0.25 9.5 0.25 12.5 3.25 C3.59 3.25 -5.32 3.25 -14.5 3.25 C-10.46928764 -0.78071236 -5.33946682 0.03173532 0 0 Z " fill="#882A2B" transform="translate(151.5,56.75)"/>
<path d="M0 0 C2.9375 0.8125 2.9375 0.8125 6 2 C7 5 7 5 7 8 C7.66 8.33 8.32 8.66 9 9 C8.01 9.33 7.02 9.66 6 10 C5.34 9.67 4.68 9.34 4 9 C4 8.01 4 7.02 4 6 C2.02 6.33 0.04 6.66 -2 7 C-2 5.35 -2 3.7 -2 2 C-1.34 2 -0.68 2 0 2 C0 1.34 0 0.68 0 0 Z " fill="#70AA4D" transform="translate(146,13)"/>
<path d="M0 0 C4.29 0 8.58 0 13 0 C13.33 0.66 13.66 1.32 14 2 C12.96939453 2.05607422 12.96939453 2.05607422 11.91796875 2.11328125 C11.01691406 2.17902344 10.11585937 2.24476562 9.1875 2.3125 C8.29417969 2.37050781 7.40085937 2.42851562 6.48046875 2.48828125 C3.59284706 3.08399533 2.98161551 3.91956377 1 6 C-1.375 6.94921875 -1.375 6.94921875 -4 7.6875 C-5.299375 8.06455078 -5.299375 8.06455078 -6.625 8.44921875 C-9 9 -9 9 -12 9 C-12 8.34 -12 7.68 -12 7 C-11.21753906 6.74605469 -10.43507813 6.49210938 -9.62890625 6.23046875 C-8.11103516 5.71419922 -8.11103516 5.71419922 -6.5625 5.1875 C-5.55316406 4.85105469 -4.54382813 4.51460937 -3.50390625 4.16796875 C-2.67761719 3.78253906 -1.85132812 3.39710937 -1 3 C-0.67 2.01 -0.34 1.02 0 0 Z " fill="#79A35B" transform="translate(75,6)"/>
<path d="M0 0 C3.77001757 0.40978452 5.80106814 0.86737876 9 3 C6.69 3 4.38 3 2 3 C2 5.97 2 8.94 2 12 C1.01 11.67 0.02 11.34 -1 11 C-1.02688151 9.35425434 -1.04634123 7.70838587 -1.0625 6.0625 C-1.07410156 5.14597656 -1.08570312 4.22945312 -1.09765625 3.28515625 C-1 1 -1 1 0 0 Z " fill="#B3484E" transform="translate(126,125)"/>
<path d="M0 0 C1.796875 0.15234375 1.796875 0.15234375 4 1 C5.703125 3.50390625 5.703125 3.50390625 7.25 6.5625 C8.03117187 8.08037109 8.03117187 8.08037109 8.828125 9.62890625 C9.21484375 10.41136719 9.6015625 11.19382812 10 12 C9.34 12 8.68 12 8 12 C7.67 12.66 7.34 13.32 7 14 C6.71125 13.401875 6.4225 12.80375 6.125 12.1875 C4.95257974 9.80672208 4.95257974 9.80672208 3 7 C3 6.34 3 5.68 3 5 C2.01 4.67 1.02 4.34 0 4 C0 2.68 0 1.36 0 0 Z " fill="#445439" transform="translate(66,114)"/>
<path d="M0 0 C0.99 0.99 1.98 1.98 3 3 C2.01 3.33 1.02 3.66 0 4 C-1.20882096 6.00016466 -1.20882096 6.00016466 -2 8 C-2.66 8 -3.32 8 -4 8 C-4.165 8.680625 -4.33 9.36125 -4.5 10.0625 C-6.71301627 14.39632353 -10.25519489 16.97802936 -14 20 C-14.66 19.67 -15.32 19.34 -16 19 C-15.43152344 18.46632812 -14.86304688 17.93265625 -14.27734375 17.3828125 C-8.72359612 12.02377054 -4.20040868 6.46943974 0 0 Z " fill="#87A36A" transform="translate(177,149)"/>
<path d="M0 0 C1 3 1 3 0.28515625 4.90234375 C-2.89941638 10.20318191 -6.09209266 13.01765582 -12 15 C-12.66 15 -13.32 15 -14 15 C-14 14.34 -14 13.68 -14 13 C-11.69 12.01 -9.38 11.02 -7 10 C-7 9.34 -7 8.68 -7 8 C-5.68945377 6.64426252 -4.35251497 5.31387169 -3 4 C-1.97676564 2.68441297 -0.96873032 1.35622245 0 0 Z " fill="#192445" transform="translate(112,141)"/>
<path d="M0 0 C2.52259061 1.97420135 2.9929808 2.96745642 3.6875 6.1875 C3.790625 7.115625 3.89375 8.04375 4 9 C4.66 9 5.32 9 6 9 C5.34 10.32 4.68 11.64 4 13 C3.34 12.34 2.68 11.68 2 11 C1.67 12.32 1.34 13.64 1 15 C0.896875 13.88625 0.79375 12.7725 0.6875 11.625 C0.460625 10.42875 0.23375 9.2325 0 8 C-0.99 7.34 -1.98 6.68 -3 6 C-2.34 5.34 -1.68 4.68 -1 4 C-0.3574765 1.93125966 -0.3574765 1.93125966 0 0 Z " fill="#75AA51" transform="translate(12,134)"/>
<path d="M0 0 C1.21236328 0.01353516 1.21236328 0.01353516 2.44921875 0.02734375 C3.37154297 0.04474609 3.37154297 0.04474609 4.3125 0.0625 C5.3125 3.0625 5.3125 3.0625 4.375 5.25 C4.024375 5.848125 3.67375 6.44625 3.3125 7.0625 C2.6525 7.0625 1.9925 7.0625 1.3125 7.0625 C1.3125 5.7425 1.3125 4.4225 1.3125 3.0625 C-2.40486641 2.71349442 -2.40486641 2.71349442 -5.5 4.5625 C-5.891875 5.0575 -6.28375 5.5525 -6.6875 6.0625 C-7.0175 4.4125 -7.3475 2.7625 -7.6875 1.0625 C-4.80538698 0.10179566 -2.98899956 -0.04331883 0 0 Z " fill="#838768" transform="translate(163.6875,140.9375)"/>
<path d="M0 0 C0.33 0 0.66 0 1 0 C1 6.6 1 13.2 1 20 C0.34 20 -0.32 20 -1 20 C-1.92373389 16.06119868 -2.16445401 12.35476634 -2.1875 8.3125 C-2.20167969 7.17425781 -2.21585938 6.03601563 -2.23046875 4.86328125 C-2 2 -2 2 0 0 Z " fill="#89AD68" transform="translate(193,90)"/>
<path d="M0 0 C0.66 0 1.32 0 2 0 C4.11912545 4.2382509 3.25196473 9.11812346 2 13.5 C1.505 14.7375 1.505 14.7375 1 16 C0.01 15.67 -0.98 15.34 -2 15 C-1.67 14.01 -1.34 13.02 -1 12 C-0.77674186 9.94106379 -0.59294241 7.87766347 -0.4375 5.8125 C-0.35371094 4.72582031 -0.26992187 3.63914062 -0.18359375 2.51953125 C-0.12300781 1.68808594 -0.06242187 0.85664062 0 0 Z " fill="#495C43" transform="translate(72,74)"/>
<path d="M0 0 C0.66 0 1.32 0 2 0 C0.66602243 3.59147806 -0.74983838 6.8843916 -3 10 C-5.1015625 10.640625 -5.1015625 10.640625 -7 11 C-6.88637738 9.5199159 -6.75877092 8.04089926 -6.625 6.5625 C-6.55539062 5.73878906 -6.48578125 4.91507813 -6.4140625 4.06640625 C-6.27742187 3.38449219 -6.14078125 2.70257813 -6 2 C-5.34 1.67 -4.68 1.34 -4 1 C-3.34 1.99 -2.68 2.98 -2 4 C-1.34 2.68 -0.68 1.36 0 0 Z " fill="#6C9B4C" transform="translate(21,49)"/>
<path d="M0 0 C0 0.99 0 1.98 0 3 C-3.20380017 5.13586678 -4.01939967 5.23132175 -7.6875 5.125 C-8.49574219 5.10695312 -9.30398437 5.08890625 -10.13671875 5.0703125 C-11.05904297 5.03550781 -11.05904297 5.03550781 -12 5 C-12 4.34 -12 3.68 -12 3 C-12.99 3.33 -13.98 3.66 -15 4 C-15.66 3.01 -16.32 2.02 -17 1 C-15.85660156 1.01160156 -14.71320313 1.02320313 -13.53515625 1.03515625 C-12.04427246 1.04453288 -10.55338691 1.05363321 -9.0625 1.0625 C-8.30775391 1.07087891 -7.55300781 1.07925781 -6.77539062 1.08789062 C-4.85005687 1.09652441 -2.92464419 1.05224333 -1 1 C-0.67 0.67 -0.34 0.34 0 0 Z " fill="#AF4348" transform="translate(152,127)"/>
<path d="M0 0 C0.66 0 1.32 0 2 0 C2.5625 1.9375 2.5625 1.9375 3 4 C2 5 2 5 -1.81640625 5.09765625 C-3.39846682 5.09098089 -4.98051159 5.07901875 -6.5625 5.0625 C-7.36880859 5.05798828 -8.17511719 5.05347656 -9.00585938 5.04882812 C-11.00393756 5.03700518 -13.00197783 5.01906914 -15 5 C-15 4.34 -15 3.68 -15 3 C-14.00097656 2.95101562 -13.00195312 2.90203125 -11.97265625 2.8515625 C-10.68230469 2.77679688 -9.39195313 2.70203125 -8.0625 2.625 C-6.77472656 2.55539063 -5.48695312 2.48578125 -4.16015625 2.4140625 C-3.11730469 2.27742187 -2.07445313 2.14078125 -1 2 C-0.67 1.34 -0.34 0.68 0 0 Z " fill="#7E9A69" transform="translate(107,182)"/>
<path d="M0 0 C1.74991334 -0.02715383 3.49994945 -0.04646551 5.25 -0.0625 C6.71179687 -0.07990234 6.71179687 -0.07990234 8.203125 -0.09765625 C10.65758678 -0.01195577 12.66168914 0.29293934 15 1 C15 1.66 15 2.32 15 3 C10.05 3 5.1 3 0 3 C0 2.01 0 1.02 0 0 Z " fill="#5F6B59" transform="translate(43,58)"/>
<path d="M0 0 C0.99 0.33 1.98 0.66 3 1 C2.29875 1.474375 1.5975 1.94875 0.875 2.4375 C-2.90511656 5.80673433 -5.34083651 9.72340718 -8 14 C-8.99 13.34 -9.98 12.68 -11 12 C-9.67267046 10.32854798 -8.33773782 8.66313351 -7 7 C-6.56816406 6.46117187 -6.13632812 5.92234375 -5.69140625 5.3671875 C-2.23014257 1.11507128 -2.23014257 1.11507128 0 0 Z " fill="#6C8A57" transform="translate(53,28)"/>
<path d="M0 0 C2.3431213 0.25561323 4.67843403 0.59270772 7 1 C7.33 1.66 7.66 2.32 8 3 C2.26689311 5.39748106 -2.80481527 6.58411954 -9 7 C-8 5 -8 5 -5.6875 3.875 C-3 3 -3 3 1 3 C0.67 2.01 0.34 1.02 0 0 Z " fill="#65904A" transform="translate(68,15)"/>
<path d="M0 0 C1.32 0.33 2.64 0.66 4 1 C4 5.29 4 9.58 4 14 C2.68 14.33 1.36 14.66 0 15 C-0.66 14.34 -1.32 13.68 -2 13 C-1.34 12.67 -0.68 12.34 0 12 C0.66 12.33 1.32 12.66 2 13 C2 9.37 2 5.74 2 2 C1.34 2 0.68 2 0 2 C0 1.34 0 0.68 0 0 Z " fill="#A9474E" transform="translate(164,59)"/>
<path d="M0 0 C6.625 -0.25 6.625 -0.25 10 2 C10.66 2 11.32 2 12 2 C12 2.66 12 3.32 12 4 C8.04 4 4.08 4 0 4 C0 2.68 0 1.36 0 0 Z " fill="#AF242A" transform="translate(128,128)"/>
<path d="M0 0 C8.03571429 2.27678571 8.03571429 2.27678571 10.5625 6.4375 C12.01749065 10.04334639 12.13376498 10.58368829 11 14 C10.16151196 12.54462432 9.32936066 11.08559627 8.5 9.625 C8.0359375 8.81289062 7.571875 8.00078125 7.09375 7.1640625 C6 5 6 5 6 3 C4.02 3 2.04 3 0 3 C-0.33 3.99 -0.66 4.98 -1 6 C-0.67 4.02 -0.34 2.04 0 0 Z " fill="#37432F" transform="translate(43,105)"/>
<path d="M0 0 C0.33 0.66 0.66 1.32 1 2 C1.66 2.33 2.32 2.66 3 3 C3.33 3.66 3.66 4.32 4 5 C4.66 5 5.32 5 6 5 C6.0309375 5.8971875 6.0309375 5.8971875 6.0625 6.8125 C6.90456616 9.43314602 6.90456616 9.43314602 10.5625 10.75 C11.696875 11.1625 12.83125 11.575 14 12 C14 12.33 14 12.66 14 13 C11.4375 13.4375 11.4375 13.4375 8 13 C3.73715347 9.8756777 0.41194153 6.17711894 -1 1 C-0.67 0.67 -0.34 0.34 0 0 Z " fill="#707750" transform="translate(148,44)"/>
<path d="M0 0 C-7.26095974 2.1122792 -14.07356594 3.64225541 -21 0 C-17.87695835 -0.39271781 -14.75152428 -0.76113726 -11.625 -1.125 C-10.29082031 -1.29322266 -10.29082031 -1.29322266 -8.9296875 -1.46484375 C-8.07890625 -1.56152344 -7.228125 -1.65820312 -6.3515625 -1.7578125 C-5.56604004 -1.8520752 -4.78051758 -1.94633789 -3.97119141 -2.04345703 C-2 -2 -2 -2 0 0 Z " fill="#78A35D" transform="translate(126,198)"/>
<path d="M0 0 C3.17432368 2.59717392 4.09388894 5.0270515 5 9 C5.69585799 19.60828402 5.69585799 19.60828402 3 25 C3 19.06 3 13.12 3 7 C2.34 7 1.68 7 1 7 C0.67 4.69 0.34 2.38 0 0 Z " fill="#972D37" transform="translate(167,103)"/>
<path d="M0 0 C0.33 0.66 0.66 1.32 1 2 C0.67 2.99 0.34 3.98 0 5 C0.99 5.33 1.98 5.66 3 6 C2.01 6.33 1.02 6.66 0 7 C-0.73175115 9.07638672 -0.73175115 9.07638672 -1.0625 11.5 C-1.47265625 13.96875 -1.47265625 13.96875 -2 16 C-2.66 16.33 -3.32 16.66 -4 17 C-4.23360546 11.51027161 -3.81834969 6.23056146 -2 1 C-1.34 0.67 -0.68 0.34 0 0 Z " fill="#7DAA57" transform="translate(4,79)"/>
<path d="M0 0 C1.32 0.33 2.64 0.66 4 1 C3.67 1.33 3.34 1.66 3 2 C2.95907063 4.33297433 2.95758277 6.66705225 3 9 C2.67 8.34 2.34 7.68 2 7 C0.02 7 -1.96 7 -4 7 C-3.6875 5.0625 -3.6875 5.0625 -3 3 C-2.01 2.67 -1.02 2.34 0 2 C0 1.34 0 0.68 0 0 Z " fill="#6BAA44" transform="translate(175,36)"/>
<path d="M0 0 C1.04449911 3.13349732 0.93423645 3.98968256 0 7 C-0.33 6.34 -0.66 5.68 -1 5 C-2.32 5 -3.64 5 -5 5 C-5.33 5.66 -5.66 6.32 -6 7 C-6.99 6.01 -7.98 5.02 -9 4 C-2.39130435 0 -2.39130435 0 0 0 Z " fill="#76AB47" transform="translate(143,185)"/>
<path d="M0 0 C0 1.32 0 2.64 0 4 C0.66 4.33 1.32 4.66 2 5 C-1.83134499 5.218934 -4.58442859 4.80266269 -8 3 C-8.33 2.01 -8.66 1.02 -9 0 C-5.52176885 -1.15941038 -3.54104422 -0.70820884 0 0 Z " fill="#6DA153" transform="translate(128,16)"/>
<path d="M0 0 C2.10409639 -0.02701408 4.20829178 -0.04640223 6.3125 -0.0625 C7.48425781 -0.07410156 8.65601562 -0.08570313 9.86328125 -0.09765625 C13 0 13 0 16 1 C16 1.66 16 2.32 16 3 C12.23331402 4.3805087 9.55210827 3.59568159 5.75 2.5625 C4.13351563 2.13130859 4.13351563 2.13130859 2.484375 1.69140625 C1.25460938 1.34916016 1.25460938 1.34916016 0 1 C0 0.67 0 0.34 0 0 Z " fill="#86B067" transform="translate(106,0)"/>
<path d="M0 0 C1.32 0 2.64 0 4 0 C4 0.66 4 1.32 4 2 C2.04578965 2.86355778 0.08648653 3.71559934 -1.875 4.5625 C-2.96554688 5.03816406 -4.05609375 5.51382813 -5.1796875 6.00390625 C-6.11039063 6.33261719 -7.04109375 6.66132813 -8 7 C-8.66 6.67 -9.32 6.34 -10 6 C-9.67 5.01 -9.34 4.02 -9 3 C-7.1875 2.3046875 -7.1875 2.3046875 -5 1.875 C-2.22654918 1.46392855 -2.22654918 1.46392855 0 0 Z " fill="#7FA262" transform="translate(138,190)"/>
<path d="M0 0 C4.13813705 0.53176995 6.27082318 2.77932166 9.25 5.5625 C10.14203125 6.38878906 11.0340625 7.21507812 11.953125 8.06640625 C12.62859375 8.70449219 13.3040625 9.34257812 14 10 C13.01 11.485 13.01 11.485 12 13 C12 12.34 12 11.68 12 11 C11.34 11 10.68 11 10 11 C7.875 9.125 7.875 9.125 6 7 C6 6.34 6 5.68 6 5 C5.01 4.67 4.02 4.34 3 4 C2.67 3.01 2.34 2.02 2 1 C1.34 0.67 0.68 0.34 0 0 Z " fill="#729457" transform="translate(34,166)"/>
<path d="M0 0 C0.66 0 1.32 0 2 0 C2 2.31 2 4.62 2 7 C1.01 7.495 1.01 7.495 0 8 C-0.33 8.99 -0.66 9.98 -1 11 C-2.32 10.67 -3.64 10.34 -5 10 C-3.35 6.7 -1.7 3.4 0 0 Z " fill="#7D9F64" transform="translate(183,138)"/>
<path d="M0 0 C2.02045442 0.60183749 4.02111039 1.27306096 6 2 C6.33 2.66 6.66 3.32 7 4 C6.07421875 5.9453125 6.07421875 5.9453125 4.6875 8.125 C4.23761719 8.84945312 3.78773438 9.57390625 3.32421875 10.3203125 C2.88722656 10.87460937 2.45023438 11.42890625 2 12 C1.34 12 0.68 12 0 12 C1.19899698 8.9168649 2.47700477 5.93720508 4 3 C2.68 3 1.36 3 0 3 C0 2.01 0 1.02 0 0 Z " fill="#8FA976" transform="translate(161,43)"/>
<path d="M0 0 C0.66 0.33 1.32 0.66 2 1 C1.38125 1.2475 0.7625 1.495 0.125 1.75 C-2.45111836 3.26536374 -2.69635726 4.35546759 -4 7 C-5.1762248 8.60732981 -6.3863747 10.19024962 -7.625 11.75 C-8.57246094 12.94882812 -8.57246094 12.94882812 -9.5390625 14.171875 C-10.02117188 14.77515625 -10.50328125 15.3784375 -11 16 C-11.33 15.34 -11.66 14.68 -12 14 C-11.65066406 13.52949219 -11.30132813 13.05898438 -10.94140625 12.57421875 C-10.25884766 11.64029297 -10.25884766 11.64029297 -9.5625 10.6875 C-9.11003906 10.07261719 -8.65757813 9.45773438 -8.19140625 8.82421875 C-6.82663692 6.90322899 -6.82663692 6.90322899 -6 4 C-5.01 4 -4.02 4 -3 4 C-3 3.01 -3 2.02 -3 1 C-2.01 0.67 -1.02 0.34 0 0 Z " fill="#6E8956" transform="translate(35,33)"/>
<path d="M0 0 C4.06225548 0.57823096 6.84762346 1.89117737 10.3125 4.0625 C11.19550781 4.61035156 12.07851562 5.15820312 12.98828125 5.72265625 C13.65214844 6.14417969 14.31601563 6.56570312 15 7 C12 8 12 8 9.125 6.6875 C8.09375 6.130625 7.0625 5.57375 6 5 C4.6078125 4.505 4.6078125 4.505 3.1875 4 C2.465625 3.67 1.74375 3.34 1 3 C0.67 2.01 0.34 1.02 0 0 Z " fill="#89A55E" transform="translate(140,8)"/>
<path d="M0 0 C0.66 0.33 1.32 0.66 2 1 C1.34 6.61 0.68 12.22 0 18 C-0.66 18 -1.32 18 -2 18 C-1.85980308 15.18711295 -1.71312045 12.37483115 -1.5625 9.5625 C-1.52318359 8.76005859 -1.48386719 7.95761719 -1.44335938 7.13085938 C-1.11328125 1.11328125 -1.11328125 1.11328125 0 0 Z " fill="#789664" transform="translate(9,75)"/>
<path d="M0 0 C0.33 0.66 0.66 1.32 1 2 C0.22265625 3.7265625 0.22265625 3.7265625 -0.9375 5.625 C-1.618125 6.73875 -2.29875 7.8525 -3 9 C-3.99 8.67 -4.98 8.34 -6 8 C-6.33 6.02 -6.66 4.04 -7 2 C-6.34 2 -5.68 2 -5 2 C-5 2.66 -5 3.32 -5 4 C-4.34 4 -3.68 4 -3 4 C-2.67 3.01 -2.34 2.02 -2 1 C-1.34 0.67 -0.68 0.34 0 0 Z " fill="#6CAA47" transform="translate(10,68)"/>
<path d="M0 0 C5.92863717 1.16651426 11.38798394 2.75519358 17 5 C14.00468461 5.99843846 12.82744268 6.00732761 9.8125 5.5625 C8.554375 5.376875 7.29625 5.19125 6 5 C5.67 4.01 5.34 3.02 5 2 C3.68 2.33 2.36 2.66 1 3 C0.67 2.01 0.34 1.02 0 0 Z " fill="#80A464" transform="translate(123,2)"/>
<path d="M0 0 C0.33 0.99 0.66 1.98 1 3 C-4.75 6 -4.75 6 -7 6 C-7.33 6.66 -7.66 7.32 -8 8 C-8.66 6.35 -9.32 4.7 -10 3 C-9.34 2.34 -8.68 1.68 -8 1 C-7.67 1.66 -7.34 2.32 -7 3 C-5.68 3 -4.36 3 -3 3 C-3 2.34 -3 1.68 -3 1 C-2.01 0.67 -1.02 0.34 0 0 Z " fill="#6AAC44" transform="translate(153,179)"/>
<path d="M0 0 C0.99 0.33 1.98 0.66 3 1 C3 1.66 3 2.32 3 3 C3.99 3.33 4.98 3.66 6 4 C7.1875 6.5625 7.1875 6.5625 8 9 C6.35 9.66 4.7 10.32 3 11 C2.87625 9.865625 2.7525 8.73125 2.625 7.5625 C2.41875 6.386875 2.2125 5.21125 2 4 C1.34 3.67 0.68 3.34 0 3 C0 2.01 0 1.02 0 0 Z " fill="#8DAC69" transform="translate(41,145)"/>
<path d="M0 0 C0.226875 0.639375 0.45375 1.27875 0.6875 1.9375 C1.85250896 4.27193661 1.85250896 4.27193661 4.625 4.75 C5.40875 4.8325 6.1925 4.915 7 5 C7.12375 5.639375 7.2475 6.27875 7.375 6.9375 C7.684375 7.9584375 7.684375 7.9584375 8 9 C8.66 9.33 9.32 9.66 10 10 C7.25 9.875 7.25 9.875 4 9 C1.39476132 5.84629002 0 4.13351845 0 0 Z " fill="#A42731" transform="translate(127,87)"/>
<path d="M0 0 C3 1 3 1 4.1875 3.0625 C4.455625 3.701875 4.72375 4.34125 5 5 C4.34 5 3.68 5 3 5 C2.34 5.66 1.68 6.32 1 7 C-1.125 6.625 -1.125 6.625 -3 6 C-3 4.68 -3 3.36 -3 2 C-2.01 1.34 -1.02 0.68 0 0 Z " fill="#69A641" transform="translate(22,151)"/>
<path d="M0 0 C3.6127551 2.6363348 6.10524168 4.91131099 8 9 C8.1875 11.8125 8.1875 11.8125 8 14 C5.08772731 10.71195019 3.50298788 8.40114397 3 4 C2.01 3.67 1.02 3.34 0 3 C0 2.01 0 1.02 0 0 Z " fill="#7E9C5F" transform="translate(153,32)"/>
<path d="M0 0 C6.75 0.875 6.75 0.875 9 2 C9 2.66 9 3.32 9 4 C10.65 4.33 12.3 4.66 14 5 C14 5.66 14 6.32 14 7 C4.22210581 3.99633316 4.22210581 3.99633316 0 1 C0 0.67 0 0.34 0 0 Z " fill="#7C9F61" transform="translate(131,12)"/>
<path d="M0 0 C4.13621084 3.3810038 7.81316569 6.66590534 11 11 C6.73878485 10.52653165 4.81626862 8.03860562 2 5 C1.34 4.34 0.68 3.68 0 3 C0 2.01 0 1.02 0 0 Z " fill="#80A065" transform="translate(167,25)"/>
<path d="M0 0 C0.33 0.99 0.66 1.98 1 3 C-0.65 3.33 -2.3 3.66 -4 4 C-4.33 4.99 -4.66 5.98 -5 7 C-5.66 7 -6.32 7 -7 7 C-7.66 8.32 -8.32 9.64 -9 11 C-9.99 10.34 -10.98 9.68 -12 9 C-11.01 8.67 -10.02 8.34 -9 8 C-8.67 7.34 -8.34 6.68 -8 6 C-7.34 6 -6.68 6 -6 6 C-5.938125 5.38125 -5.87625 4.7625 -5.8125 4.125 C-5 2 -5 2 -2.4375 0.75 C-1.633125 0.5025 -0.82875 0.255 0 0 Z " fill="#628E49" transform="translate(55,25)"/>
<path d="M0 0 C-8.25433526 4.85549133 -8.25433526 4.85549133 -12 6 C-12.99 5.67 -13.98 5.34 -15 5 C-14 3 -14 3 -11.34765625 1.89453125 C-9.72150391 1.35892578 -9.72150391 1.35892578 -8.0625 0.8125 C-6.44021484 0.26529297 -6.44021484 0.26529297 -4.78515625 -0.29296875 C-2 -1 -2 -1 0 0 Z " fill="#8CA872" transform="translate(78,18)"/>
<path d="M0 0 C8.57142857 -0.28571429 8.57142857 -0.28571429 12 2 C11 3 11 3 8.71484375 3.09765625 C7.34005859 3.08025391 7.34005859 3.08025391 5.9375 3.0625 C5.01839844 3.05347656 4.09929687 3.04445313 3.15234375 3.03515625 C2.44207031 3.02355469 1.73179688 3.01195312 1 3 C0.67 2.01 0.34 1.02 0 0 Z " fill="#76A35E" transform="translate(104,6)"/>
<path d="M0 0 C1.875 0.25 1.875 0.25 4 1 C5.3125 2.9375 5.3125 2.9375 6 5 C5.67 5.66 5.34 6.32 5 7 C3.68 6.67 2.36 6.34 1 6 C1 5.34 1 4.68 1 4 C0.34 4 -0.32 4 -1 4 C-0.67 2.68 -0.34 1.36 0 0 Z " fill="#6EA245" transform="translate(52,168)"/>
<path d="M0 0 C0.99 0.33 1.98 0.66 3 1 C3 1.66 3 2.32 3 3 C2.01 3 1.02 3 0 3 C-0.33 3.99 -0.66 4.98 -1 6 C-1.99 6 -2.98 6 -4 6 C-4.33 6.66 -4.66 7.32 -5 8 C-5.66 7.34 -6.32 6.68 -7 6 C-5.90716423 4.96704564 -4.80029421 3.94892165 -3.6875 2.9375 C-3.07261719 2.36902344 -2.45773438 1.80054688 -1.82421875 1.21484375 C-0.92123047 0.61349609 -0.92123047 0.61349609 0 0 Z " fill="#7FA05C" transform="translate(160,169)"/>
<path d="M0 0 C2.52845528 1.26422764 2.76422764 2.52845528 4 5 C1.03 6.32 -1.94 7.64 -5 9 C-4.67 6.69 -4.34 4.38 -4 2 C-3.01 2.33 -2.02 2.66 -1 3 C-0.67 2.01 -0.34 1.02 0 0 Z " fill="#578E39" transform="translate(162,147)"/>
<path d="M0 0 C0.66 0.33 1.32 0.66 2 1 C1.649375 1.515625 1.29875 2.03125 0.9375 2.5625 C-0.3615641 5.94006667 0.32782319 8.50468057 1 12 C-0.9375 11.4375 -0.9375 11.4375 -3 10 C-3.75 6.375 -3.75 6.375 -4 3 C-3.01 3 -2.02 3 -1 3 C-0.67 2.01 -0.34 1.02 0 0 Z " fill="#AA3845" transform="translate(142,71)"/>
<path d="M0 0 C0.99 0.33 1.98 0.66 3 1 C2.34 1 1.68 1 1 1 C0.87625 1.61875 0.7525 2.2375 0.625 2.875 C0 5 0 5 -2 7 C-2.6425235 9.06874034 -2.6425235 9.06874034 -3 11 C-2.01 11.33 -1.02 11.66 0 12 C-1.65 11.67 -3.3 11.34 -5 11 C-4.46884894 6.48521602 -2.63379708 3.65333143 0 0 Z " fill="#869D6B" transform="translate(34,143)"/>
<path d="M0 0 C0.66 0.33 1.32 0.66 2 1 C2 2.98 2 4.96 2 7 C0.02 7.99 0.02 7.99 -2 9 C-1.125 1.125 -1.125 1.125 0 0 Z " fill="#344D29" transform="translate(41,132)"/>
<path d="M0 0 C3.96 0 7.92 0 12 0 C12 0.66 12 1.32 12 2 C8.0186217 3.3271261 4.14954773 3.06915913 0 3 C0 2.01 0 1.02 0 0 Z " fill="#58634B" transform="translate(42,94)"/>
<path d="M0 0 C0.05422947 1.4370809 0.09289723 2.87475462 0.125 4.3125 C0.14820313 5.11300781 0.17140625 5.91351563 0.1953125 6.73828125 C0 9 0 9 -2 12 C-2.33 8.37 -2.66 4.74 -3 1 C-1 0 -1 0 0 0 Z " fill="#AC373D" transform="translate(128,75)"/>
<path d="M0 0 C2.475 0.99 2.475 0.99 5 2 C4.01 2.495 4.01 2.495 3 3 C3.66 4.98 4.32 6.96 5 9 C4.34 9 3.68 9 3 9 C2.67 8.34 2.34 7.68 2 7 C1.01 7 0.02 7 -1 7 C-0.67 4.69 -0.34 2.38 0 0 Z " fill="#66AA48" transform="translate(31,163)"/>
<path d="M0 0 C0.66 0 1.32 0 2 0 C2 2.31 2 4.62 2 7 C2.99 7 3.98 7 5 7 C5.33 7.99 5.66 8.98 6 10 C4.02 9.34 2.04 8.68 0 8 C0 5.36 0 2.72 0 0 Z " fill="#1E2D4B" transform="translate(80,146)"/>
<path d="M0 0 C0.66 0 1.32 0 2 0 C0.96508351 2.82249951 0.30084735 3.83374226 -2.375 5.3125 C-5.10579853 6.02770914 -6.39189261 5.9659657 -9 5 C-9 4.34 -9 3.68 -9 3 C-6.50935112 2.31292445 -4.62113708 2 -2 2 C-1.34 1.34 -0.68 0.68 0 0 Z " fill="#2C3C1F" transform="translate(66,97)"/>
<path d="M0 0 C0.66 0 1.32 0 2 0 C2 0.66 2 1.32 2 2 C4.31 2.33 6.62 2.66 9 3 C6.4345406 5.5654594 4.52313332 5.54046087 1 6 C-0.0625 4.125 -0.0625 4.125 -1 2 C-0.67 1.34 -0.34 0.68 0 0 Z " fill="#748B5A" transform="translate(29,53)"/>
<path d="M0 0 C0.28875 0.598125 0.5775 1.19625 0.875 1.8125 C2.04742026 4.19327792 2.04742026 4.19327792 4 7 C2.35 7.33 0.7 7.66 -1 8 C-1.93065133 5.39417629 -2.14917407 4.35801776 -1.0625 1.75 C-0.711875 1.1725 -0.36125 0.595 0 0 Z " fill="#6EA74A" transform="translate(181,43)"/>
<path d="M0 0 C0.66 0 1.32 0 2 0 C1.71125 0.70125 1.4225 1.4025 1.125 2.125 C-0.02133588 5.05452503 -1.02625654 8.00921653 -2 11 C-2.99 10.67 -3.98 10.34 -5 10 C-3.35 6.7 -1.7 3.4 0 0 Z " fill="#657D4D" transform="translate(35,39)"/>
<path d="M0 0 C0.33 0.99 0.66 1.98 1 3 C-0.98 3.99 -0.98 3.99 -3 5 C-3 5.66 -3 6.32 -3 7 C-3.66 7 -4.32 7 -5 7 C-5.33 7.99 -5.66 8.98 -6 10 C-6.99 9.67 -7.98 9.34 -9 9 C-6.03 6.03 -3.06 3.06 0 0 Z " fill="#7F9E66" transform="translate(32,25)"/>
<path d="M0 0 C1.32 0.33 2.64 0.66 4 1 C1.36 2.98 -1.28 4.96 -4 7 C-4.33 6.01 -4.66 5.02 -5 4 C-4.0409375 3.8453125 -4.0409375 3.8453125 -3.0625 3.6875 C-2.381875 3.460625 -1.70125 3.23375 -1 3 C-0.67 2.01 -0.34 1.02 0 0 Z " fill="#819F5E" transform="translate(160,177)"/>
<path d="M0 0 C-0.33 0.66 -0.66 1.32 -1 2 C-3.97 2 -6.94 2 -10 2 C-10.33 1.34 -10.66 0.68 -11 0 C-6.98195309 -0.84098656 -3.98196457 -1.05404945 0 0 Z " fill="#8FA568" transform="translate(119,181)"/>
<path d="M0 0 C0.66 0.33 1.32 0.66 2 1 C1.67 1.66 1.34 2.32 1 3 C0.34 3 -0.32 3 -1 3 C-1 3.99 -1 4.98 -1 6 C-2.65 6.33 -4.3 6.66 -6 7 C-5.8125 5.1875 -5.8125 5.1875 -5 3 C-2.5625 1.1875 -2.5625 1.1875 0 0 Z " fill="#78A05F" transform="translate(151,176)"/>
<path d="M0 0 C2.97 1.65 5.94 3.3 9 5 C9 5.66 9 6.32 9 7 C9.66 7 10.32 7 11 7 C10.67 7.66 10.34 8.32 10 9 C8.68 8.34 7.36 7.68 6 7 C6 6.34 6 5.68 6 5 C4.68 4.67 3.36 4.34 2 4 C2 3.34 2 2.68 2 2 C1.34 2 0.68 2 0 2 C0 1.34 0 0.68 0 0 Z " fill="#88A767" transform="translate(60,171)"/>
<path d="M0 0 C0.66 0 1.32 0 2 0 C3.625 2.5 3.625 2.5 5 5 C4.34 5.66 3.68 6.32 3 7 C0.375 6.625 0.375 6.625 -2 6 C-2 4.68 -2 3.36 -2 2 C-1.34 2 -0.68 2 0 2 C0 1.34 0 0.68 0 0 Z " fill="#6E9858" transform="translate(37,140)"/>
<path d="M0 0 C0 0.99 0 1.98 0 3 C0.66 3.33 1.32 3.66 2 4 C2 4.66 2 5.32 2 6 C-0.875 5.75 -0.875 5.75 -4 5 C-5.375 2.9375 -5.375 2.9375 -6 1 C-3.92446352 0.4465236 -2.15634036 0 0 0 Z " fill="#586263" transform="translate(83,138)"/>
<path d="M0 0 C0.99 0 1.98 0 3 0 C3 0.66 3 1.32 3 2 C4.65 1.34 6.3 0.68 8 0 C8 1.65 8 3.3 8 5 C4.62537285 4.45276317 2.91765 3.9451 0 2 C0 1.34 0 0.68 0 0 Z " fill="#849B55" transform="translate(154,51)"/>
<path d="M0 0 C1.32 0.33 2.64 0.66 4 1 C4 1.99 4 2.98 4 4 C4.78375 4.0825 5.5675 4.165 6.375 4.25 C9 5 9 5 10.3125 7.0625 C10.6528125 8.0215625 10.6528125 8.0215625 11 9 C7.22272911 7.18690997 3.62730178 5.0926741 0 3 C0 2.01 0 1.02 0 0 Z " fill="#6D8F58" transform="translate(146,18)"/>
<path d="M0 0 C1.32 0 2.64 0 4 0 C3.814375 0.61875 3.62875 1.2375 3.4375 1.875 C2.76313824 4.04160178 2.76313824 4.04160178 4 6 C3.21625 5.814375 2.4325 5.62875 1.625 5.4375 C-0.97089775 4.74037734 -0.97089775 4.74037734 -3 6 C-2 4 -1 2 0 0 Z " fill="#7FAE53" transform="translate(66,4)"/>
<path d="M0 0 C0.99 0.33 1.98 0.66 3 1 C0.03 4.96 0.03 4.96 -3 9 C-3.99 8.67 -4.98 8.34 -6 8 C-5.67 7.01 -5.34 6.02 -5 5 C-4.01 5 -3.02 5 -2 5 C-1.34 3.35 -0.68 1.7 0 0 Z " fill="#70895A" transform="translate(159,159)"/>
<path d="M0 0 C3 1 3 1 4.6875 4.0625 C5.120625 5.031875 5.55375 6.00125 6 7 C5.34 7.66 4.68 8.32 4 9 C0 3.375 0 3.375 0 0 Z " fill="#4E5948" transform="translate(76,129)"/>
<path d="M0 0 C0.33 0.66 0.66 1.32 1 2 C0.04956626 3.33897583 -0.91059147 4.67105427 -1.875 6 C-2.40867188 6.7425 -2.94234375 7.485 -3.4921875 8.25 C-3.98976562 8.8275 -4.48734375 9.405 -5 10 C-5.66 10 -6.32 10 -7 10 C-7 9.01 -7 8.02 -7 7 C-6.01 7 -5.02 7 -4 7 C-4 6.01 -4 5.02 -4 4 C-3.34 4 -2.68 4 -2 4 C-2 3.01 -2 2.02 -2 1 C-1.34 0.67 -0.68 0.34 0 0 Z " fill="#822130" transform="translate(169,128)"/>
<path d="M0 0 C3.73487777 0.4979837 5.81237635 0.87491756 9 3 C5.7 3.33 2.4 3.66 -1 4 C-0.67 2.68 -0.34 1.36 0 0 Z " fill="#9C4956" transform="translate(126,125)"/>
<path d="M0 0 C0.99 0.99 1.98 1.98 3 3 C-0.96 2.67 -4.92 2.34 -9 2 C-5.53076119 -0.31282587 -4.07794425 -0.42478586 0 0 Z " fill="#6D8B54" transform="translate(78,14)"/>
<path d="M0 0 C1.258125 0.12375 2.51625 0.2475 3.8125 0.375 C4.87404297 0.47941406 4.87404297 0.47941406 5.95703125 0.5859375 C8 1 8 1 11 3 C7.44706507 4.14947895 6.20023331 4.0868937 2.6875 2.5625 C1.800625 2.046875 0.91375 1.53125 0 1 C0 0.67 0 0.34 0 0 Z " fill="#7C9F5E" transform="translate(56,177)"/>
<path d="M0 0 C4.05606165 0.46800711 7.46588679 0.87953208 11 3 C6.47907032 4.45606519 3.48351204 3.27032841 -1 2 C-0.67 1.34 -0.34 0.68 0 0 Z " fill="#7FA765" transform="translate(118,8)"/>
<path d="M0 0 C2.97 0.495 2.97 0.495 6 1 C6 1.66 6 2.32 6 3 C6.99 3.33 7.98 3.66 9 4 C9 4.66 9 5.32 9 6 C5.06326356 4.68775452 2.77280706 3.08089673 0 0 Z " fill="#729358" transform="translate(47,171)"/>
<path d="M0 0 C0.99 0.33 1.98 0.66 3 1 C3 1.66 3 2.32 3 3 C4.98 2.67 6.96 2.34 9 2 C8.67 2.99 8.34 3.98 8 5 C5.69 4.67 3.38 4.34 1 4 C0.67 2.68 0.34 1.36 0 0 Z " fill="#9E2E38" transform="translate(126,136)"/>
<path d="M0 0 C0.103125 0.639375 0.20625 1.27875 0.3125 1.9375 C0.539375 2.618125 0.76625 3.29875 1 4 C1.99 4.33 2.98 4.66 4 5 C3.01 5.99 2.02 6.98 1 8 C0.01 7.34 -0.98 6.68 -2 6 C-1.34 4.02 -0.68 2.04 0 0 Z " fill="#AE2430" transform="translate(155,122)"/>
<path d="M0 0 C3.93673644 1.31224548 6.22719294 2.91910327 9 6 C2.35384615 4.52307692 2.35384615 4.52307692 0.5625 1.875 C0.376875 1.25625 0.19125 0.6375 0 0 Z " fill="#A92E3A" transform="translate(145,86)"/>
<path d="M0 0 C-0.33 0.99 -0.66 1.98 -1 3 C-7.625 2.25 -7.625 2.25 -11 0 C-7.18243176 -1.37432457 -3.92744671 -0.67975039 0 0 Z " fill="#79955A" transform="translate(76,181)"/>
<path d="M0 0 C0.66 0.33 1.32 0.66 2 1 C2.66 1 3.32 1 4 1 C4.33 1.99 4.66 2.98 5 4 C4.67 4.66 4.34 5.32 4 6 C2.68 6 1.36 6 0 6 C-0.38218767 4.34385343 -0.71395102 2.67542976 -1 1 C-0.67 0.67 -0.34 0.34 0 0 Z " fill="#6DA748" transform="translate(14,144)"/>
<path d="M0 0 C2.875 0.25 2.875 0.25 6 1 C7.375 3.0625 7.375 3.0625 8 5 C4.5625 4.1875 4.5625 4.1875 1 3 C0.67 2.01 0.34 1.02 0 0 Z " fill="#4A5742" transform="translate(58,59)"/>
<path d="M0 0 C0 0.66 0 1.32 0 2 C-2.64 2.33 -5.28 2.66 -8 3 C-8 2.01 -8 1.02 -8 0 C-4.94736336 -0.98120464 -3.05263664 -0.98120464 0 0 Z " fill="#5E714F" transform="translate(36,59)"/>
<path d="M0 0 C0.99 0.33 1.98 0.66 3 1 C2.195625 1.61875 1.39125 2.2375 0.5625 2.875 C-2.03874519 4.74164041 -2.03874519 4.74164041 -3 7 C-3.66 7 -4.32 7 -5 7 C-5 6.01 -5 5.02 -5 4 C-2.6875 1.75 -2.6875 1.75 0 0 Z " fill="#839A65" transform="translate(53,28)"/>
<path d="M0 0 C0 0.66 0 1.32 0 2 C-3.38018531 3.04005702 -6.4780279 3.08004482 -10 3 C-9.67 2.34 -9.34 1.68 -9 1 C-5.93090555 0.33280556 -3.14213983 0 0 0 Z " fill="#82A66A" transform="translate(124,189)"/>
<path d="M0 0 C1.98 0 3.96 0 6 0 C7.33332095 2.6666419 6.67102033 4.16680303 6 7 C5.54625 6.360625 5.0925 5.72125 4.625 5.0625 C3.16078274 2.90297594 3.16078274 2.90297594 1 2 C0.67 1.34 0.34 0.68 0 0 Z " fill="#6EA544" transform="translate(38,150)"/>
<path d="M0 0 C2.875 0.1875 2.875 0.1875 6 1 C7.375 3.5625 7.375 3.5625 8 6 C7.01 6.495 7.01 6.495 6 7 C6 6.34 6 5.68 6 5 C5.34 5 4.68 5 4 5 C4 4.34 4 3.68 4 3 C3.34 3 2.68 3 2 3 C2 2.34 2 1.68 2 1 C1.34 0.67 0.68 0.34 0 0 Z " fill="#79A856" transform="translate(160,28)"/>
<path d="M0 0 C-0.33 0.66 -0.66 1.32 -1 2 C-1.66 1.67 -2.32 1.34 -3 1 C-3.33 2.32 -3.66 3.64 -4 5 C-4.33 4.34 -4.66 3.68 -5 3 C-7.01669827 1.86649466 -7.01669827 1.86649466 -9 1 C-5.92677456 0.08941469 -3.19902639 -0.08886184 0 0 Z " fill="#7FAA50" transform="translate(79,2)"/>
<path d="M0 0 C0.66 0 1.32 0 2 0 C1.814375 0.61875 1.62875 1.2375 1.4375 1.875 C0.76313824 4.04160178 0.76313824 4.04160178 2 6 C1.01 6.33 0.02 6.66 -1 7 C-1.625 4.625 -1.625 4.625 -2 2 C-1.34 1.34 -0.68 0.68 0 0 Z " fill="#6B8F51" transform="translate(139,173)"/>
<path d="M0 0 C2.31 0 4.62 0 7 0 C6.01 0.33 5.02 0.66 4 1 C3.67 1.99 3.34 2.98 3 4 C2.01 4 1.02 4 0 4 C0 2.68 0 1.36 0 0 Z " fill="#B32A31" transform="translate(128,128)"/>
<path d="M0 0 C1.32 1.65 2.64 3.3 4 5 C1.92446352 5.5534764 0.15634036 6 -2 6 C-1.34 4.02 -0.68 2.04 0 0 Z " fill="#3A4A30" transform="translate(62,103)"/>
<path d="M0 0 C1.98 0.495 1.98 0.495 4 1 C4 1.66 4 2.32 4 3 C4.66 3.33 5.32 3.66 6 4 C3.625 4.625 3.625 4.625 1 5 C0.34 4.34 -0.32 3.68 -1 3 C-0.67 2.01 -0.34 1.02 0 0 Z " fill="#B2272E" transform="translate(140,82)"/>
<path d="M0 0 C1.32 0 2.64 0 4 0 C4 0.66 4 1.32 4 2 C2.03852126 3.38938077 0.03833424 4.7260411 -2 6 C-1.34 4.02 -0.68 2.04 0 0 Z " fill="#B61F2A" transform="translate(137,60)"/>
</svg>
